<svg id="Group_79" data-name="Group 79" xmlns="http://www.w3.org/2000/svg" width="51" height="50" viewBox="0 0 51 50">
  <g id="Icon_feather-mail" data-name="Icon feather-mail" transform="translate(8 7)">
    <path id="Path_33" data-name="Path 33" d="M6,4.5H30A4.505,4.505,0,0,1,34.5,9V27A4.505,4.505,0,0,1,30,31.5H6A4.505,4.505,0,0,1,1.5,27V9A4.505,4.505,0,0,1,6,4.5Zm24,24A1.5,1.5,0,0,0,31.5,27V9A1.5,1.5,0,0,0,30,7.5H6A1.5,1.5,0,0,0,4.5,9V27A1.5,1.5,0,0,0,6,28.5Z" fill="#6b5c59"/>
    <path id="Path_34" data-name="Path 34" d="M18,21a1.5,1.5,0,0,1-.86-.271l-15-10.5A1.5,1.5,0,1,1,3.86,7.771L18,17.669l14.14-9.9a1.5,1.5,0,1,1,1.72,2.458l-15,10.5A1.5,1.5,0,0,1,18,21Z" fill="#6b5c59"/>
  </g>
  <path id="Ellipse_2" data-name="Ellipse 2" d="M25.5,1a24.784,24.784,0,0,0-9.543,1.888A24.454,24.454,0,0,0,8.169,8.036a23.9,23.9,0,0,0-5.247,7.629,23.629,23.629,0,0,0,0,18.67,23.9,23.9,0,0,0,5.247,7.629,24.454,24.454,0,0,0,7.788,5.148,25.056,25.056,0,0,0,19.085,0,24.454,24.454,0,0,0,7.788-5.148,23.9,23.9,0,0,0,5.247-7.629,23.629,23.629,0,0,0,0-18.67,23.9,23.9,0,0,0-5.247-7.629,24.454,24.454,0,0,0-7.788-5.148A24.784,24.784,0,0,0,25.5,1m0-1A25.254,25.254,0,0,1,51,25,25.254,25.254,0,0,1,25.5,50,25.254,25.254,0,0,1,0,25,25.254,25.254,0,0,1,25.5,0Z" fill="#6b5c59"/>
</svg>
