<svg xmlns="http://www.w3.org/2000/svg" width="51" height="50" viewBox="0 0 51 50">
  <g id="Group_80" data-name="Group 80" transform="translate(-62)">
    <path id="Icon_awesome-linkedin" data-name="Icon awesome-linkedin" d="M25.11,2.25H1.925A1.916,1.916,0,0,0,0,4.152V26.73a1.916,1.916,0,0,0,1.925,1.9H25.11a1.921,1.921,0,0,0,1.932-1.9V4.152A1.921,1.921,0,0,0,25.11,2.25ZM8.173,24.863H4.165V12.273H8.179v12.59Zm-2-14.31A2.268,2.268,0,1,1,8.493,8.286a2.3,2.3,0,0,1-2.324,2.267ZM23.2,24.863H19.189V18.739c0-1.46-.03-3.339-2.082-3.339-2.088,0-2.408,1.59-2.408,3.233v6.23H10.69V12.273h3.845v1.72h.054a4.242,4.242,0,0,1,3.8-2.032c4.056,0,4.811,2.609,4.811,6Z" transform="translate(73.979 9.314)" fill="#6b5c59"/>
    <path id="Ellipse_4" data-name="Ellipse 4" d="M25.5,1a24.784,24.784,0,0,0-9.543,1.888A24.454,24.454,0,0,0,8.169,8.036a23.9,23.9,0,0,0-5.247,7.629,23.629,23.629,0,0,0,0,18.67,23.9,23.9,0,0,0,5.247,7.629,24.454,24.454,0,0,0,7.788,5.148,25.056,25.056,0,0,0,19.085,0,24.454,24.454,0,0,0,7.788-5.148,23.9,23.9,0,0,0,5.247-7.629,23.629,23.629,0,0,0,0-18.67,23.9,23.9,0,0,0-5.247-7.629,24.454,24.454,0,0,0-7.788-5.148A24.784,24.784,0,0,0,25.5,1m0-1A25.254,25.254,0,0,1,51,25,25.254,25.254,0,0,1,25.5,50,25.254,25.254,0,0,1,0,25,25.254,25.254,0,0,1,25.5,0Z" transform="translate(62)" fill="#6b5c59"/>
  </g>
</svg>
