<svg xmlns="http://www.w3.org/2000/svg" width="51" height="50" viewBox="0 0 51 50">
  <g id="Group_81" data-name="Group 81" transform="translate(-123)">
    <path id="Icon_feather-github" data-name="Icon feather-github" d="M21.085,28.38a1.5,1.5,0,0,1-1.5-1.5V22.2q0-.063.005-.126a2.432,2.432,0,0,0-.761-1.95,1.5,1.5,0,0,1,.886-2.571,9.336,9.336,0,0,0,4.908-1.6c1.39-1.094,2.066-2.85,2.066-5.369A4.842,4.842,0,0,0,25.2,7.12,1.5,1.5,0,0,1,24.859,5.5a4.248,4.248,0,0,0,.222-2.433,11.251,11.251,0,0,0-3.2,1.49,1.5,1.5,0,0,1-1.166.183,16.941,16.941,0,0,0-8.3,0,1.5,1.5,0,0,1-1.166-.183,11.251,11.251,0,0,0-3.2-1.489,4.248,4.248,0,0,0,.223,2.432A1.5,1.5,0,0,1,7.927,7.12a4.839,4.839,0,0,0-1.489,3.491s0,.006,0,.009c0,5.112,2.8,6.485,6.992,6.972a1.5,1.5,0,0,1,.87,2.568,2.436,2.436,0,0,0-.761,1.928q0,.056,0,.112V26.88a1.5,1.5,0,1,1-3,0V22.253a5.328,5.328,0,0,1,.276-2.062,10.611,10.611,0,0,1-4.17-1.881c-2.129-1.676-3.21-4.261-3.211-7.685A7.756,7.756,0,0,1,5.183,5.686,7.221,7.221,0,0,1,5.628.868,1.5,1.5,0,0,1,6.59.047C7.073-.087,8.86-.342,12.3,1.68a19.966,19.966,0,0,1,8.535,0C24.267-.342,26.054-.087,26.537.047a1.5,1.5,0,0,1,.962.82,7.222,7.222,0,0,1,.446,4.82,7.76,7.76,0,0,1,1.744,4.9c0,3.45-1.08,6.05-3.211,7.727a10.4,10.4,0,0,1-4.161,1.864,5.326,5.326,0,0,1,.267,2.085V26.88A1.5,1.5,0,0,1,21.085,28.38ZM4.758,23.686A2.32,2.32,0,0,1,2.967,22.58,13.687,13.687,0,0,1,1.645,20.27a1.5,1.5,0,0,1,1.7-2.1,4.146,4.146,0,0,1,3.1,3.74,1.716,1.716,0,0,1-1.31,1.739A1.7,1.7,0,0,1,4.758,23.686Z" transform="translate(132.905 11.54)" fill="#6b5c59"/>
    <path id="Ellipse_5" data-name="Ellipse 5" d="M25.5,1a24.784,24.784,0,0,0-9.543,1.888A24.454,24.454,0,0,0,8.169,8.036a23.9,23.9,0,0,0-5.247,7.629,23.629,23.629,0,0,0,0,18.67,23.9,23.9,0,0,0,5.247,7.629,24.454,24.454,0,0,0,7.788,5.148,25.056,25.056,0,0,0,19.085,0,24.454,24.454,0,0,0,7.788-5.148,23.9,23.9,0,0,0,5.247-7.629,23.629,23.629,0,0,0,0-18.67,23.9,23.9,0,0,0-5.247-7.629,24.454,24.454,0,0,0-7.788-5.148A24.784,24.784,0,0,0,25.5,1m0-1A25.254,25.254,0,0,1,51,25,25.254,25.254,0,0,1,25.5,50,25.254,25.254,0,0,1,0,25,25.254,25.254,0,0,1,25.5,0Z" transform="translate(123)" fill="#6b5c59"/>
  </g>
</svg>
