<svg xmlns="http://www.w3.org/2000/svg" width="51" height="50" viewBox="0 0 51 50">
  <g id="Group_82" data-name="Group 82" transform="translate(-185)">
    <path id="Ellipse_6" data-name="Ellipse 6" d="M25.5,1a24.784,24.784,0,0,0-9.543,1.888A24.454,24.454,0,0,0,8.169,8.036a23.9,23.9,0,0,0-5.247,7.629,23.629,23.629,0,0,0,0,18.67,23.9,23.9,0,0,0,5.247,7.629,24.454,24.454,0,0,0,7.788,5.148,25.056,25.056,0,0,0,19.085,0,24.454,24.454,0,0,0,7.788-5.148,23.9,23.9,0,0,0,5.247-7.629,23.629,23.629,0,0,0,0-18.67,23.9,23.9,0,0,0-5.247-7.629,24.454,24.454,0,0,0-7.788-5.148A24.784,24.784,0,0,0,25.5,1m0-1A25.254,25.254,0,0,1,51,25,25.254,25.254,0,0,1,25.5,50,25.254,25.254,0,0,1,0,25,25.254,25.254,0,0,1,25.5,0Z" transform="translate(185)" fill="#6b5c59"/>
    <g id="Icon_feather-instagram" data-name="Icon feather-instagram" transform="translate(192.5 7.545)">
      <path id="Path_35" data-name="Path 35" d="M10.5,1.75h15A8.569,8.569,0,0,1,34.25,10.1v14.21A8.569,8.569,0,0,1,25.5,32.67h-15a8.569,8.569,0,0,1-8.75-8.355V10.1A8.569,8.569,0,0,1,10.5,1.75Zm15,28.42a6.069,6.069,0,0,0,6.25-5.855V10.1A6.069,6.069,0,0,0,25.5,4.25h-15A6.069,6.069,0,0,0,4.25,10.1v14.21A6.069,6.069,0,0,0,10.5,30.17Z" transform="translate(0 0)" fill="#6b5c59"/>
      <path id="Path_36" data-name="Path 36" d="M18.063,10.685a7.289,7.289,0,0,1,1.066.079,7.25,7.25,0,0,1,2.2,13.648,7.282,7.282,0,0,1-3.258.774,7.25,7.25,0,0,1,0-14.5Zm0,12a4.75,4.75,0,1,0-3.361-1.391A4.721,4.721,0,0,0,18.067,22.685Z" transform="translate(0 -0.784)" fill="#6b5c59"/>
      <path id="Path_37" data-name="Path 37" transform="translate(0 -0.356)" fill="#6b5c59"/>
    </g>
  </g>
</svg>
