<svg xmlns="http://www.w3.org/2000/svg" xmlns:xlink="http://www.w3.org/1999/xlink" width="500" zoomAndPan="magnify" viewBox="0 0 375 374.999991" height="500" preserveAspectRatio="xMidYMid meet" version="1.0"><defs><g/></defs><g fill="#000000" fill-opacity="1"><g transform="translate(122.751947, 212.462914)"><g><path d="M 85.808594 -61.191406 C 84.53125 -61.421875 83.367188 -61.191406 82.324219 -60.609375 C 80.351562 -59.683594 78.609375 -58.40625 76.867188 -57.011719 C 69.667969 -51.4375 63.511719 -45.050781 57.59375 -38.199219 C 56.082031 -36.34375 54.339844 -34.949219 52.25 -33.90625 C 45.285156 -30.1875 38.085938 -27.054688 30.886719 -23.804688 C 30.421875 -23.570312 29.957031 -23.570312 29.375 -23.570312 C 29.261719 -24.964844 30.304688 -26.007812 30.886719 -27.171875 C 33.207031 -31.816406 35.761719 -36.34375 37.15625 -41.335938 C 37.738281 -43.773438 38.085938 -46.097656 37.738281 -48.652344 C 37.386719 -51.207031 35.878906 -52.832031 33.671875 -53.761719 C 31.582031 -54.6875 29.375 -54.804688 27.171875 -54.457031 C 22.757812 -53.644531 18.460938 -52.25 14.746094 -49.695312 C 12.425781 -48.1875 10.335938 -46.445312 8.707031 -44.238281 C 7.199219 -42.265625 6.152344 -40.058594 5.804688 -37.503906 C 5.457031 -35.648438 5.921875 -34.019531 7.546875 -32.859375 C 9.40625 -31.582031 13.816406 -31.929688 15.675781 -33.554688 C 15.792969 -33.671875 15.90625 -33.789062 15.90625 -33.90625 C 15.90625 -34.136719 15.90625 -34.371094 15.792969 -34.601562 C 15.675781 -34.71875 15.210938 -34.832031 15.09375 -34.832031 C 13.816406 -33.324219 12.191406 -33.09375 10.335938 -33.207031 C 8.941406 -33.324219 8.011719 -34.136719 7.664062 -35.414062 C 7.429688 -36.34375 7.429688 -37.273438 7.664062 -38.199219 C 8.359375 -40.640625 9.40625 -42.84375 11.03125 -44.703125 C 15.792969 -50.042969 21.945312 -52.714844 28.910156 -53.527344 C 32.976562 -53.992188 35.648438 -51.320312 35.878906 -47.257812 C 35.996094 -44.585938 35.414062 -42.148438 34.484375 -39.710938 C 32.628906 -34.136719 29.726562 -29.027344 26.9375 -23.917969 C 25.777344 -21.945312 24.265625 -20.550781 22.175781 -19.621094 C 17.53125 -17.648438 13.238281 -15.210938 8.941406 -12.425781 C 6.734375 -11.03125 4.761719 -9.519531 2.902344 -7.546875 C 1.625 -6.269531 0.695312 -4.875 0.230469 -3.019531 C -0.464844 -0.464844 0.8125 1.277344 3.484375 1.507812 C 5.339844 1.625 7.199219 1.046875 8.824219 0 C 10.683594 -1.046875 12.191406 -2.4375 13.585938 -3.832031 C 18.113281 -8.128906 21.828125 -12.886719 25.3125 -17.996094 C 26.472656 -19.738281 27.867188 -21.015625 29.839844 -21.828125 C 36.691406 -25.082031 43.660156 -28.332031 50.507812 -31.464844 C 50.855469 -31.699219 51.320312 -31.699219 51.671875 -31.234375 C 51.207031 -30.652344 50.742188 -29.957031 50.277344 -29.261719 C 46.097656 -24.035156 42.382812 -18.578125 39.015625 -12.773438 C 35.414062 -6.386719 32.28125 0.230469 30.421875 7.429688 C 29.957031 9.171875 29.726562 10.914062 29.839844 12.65625 C 30.074219 15.09375 31.929688 16.605469 34.371094 16.371094 C 35.996094 16.140625 37.503906 15.558594 39.015625 14.746094 C 41.683594 13.351562 44.121094 11.609375 46.328125 9.636719 C 49.464844 6.851562 52.714844 4.0625 55.734375 1.046875 C 62.121094 -5.574219 68.507812 -12.308594 74.894531 -19.042969 C 76.519531 -20.667969 78.027344 -22.410156 79.539062 -24.152344 C 79.769531 -24.5 79.886719 -24.847656 80 -25.3125 C 80.117188 -25.3125 80 -25.542969 79.886719 -25.542969 C 79.769531 -25.660156 79.652344 -25.777344 79.539062 -25.777344 C 78.492188 -25.660156 77.910156 -24.730469 77.332031 -24.035156 C 72.222656 -18.695312 67.34375 -13.351562 62.238281 -7.894531 C 57.011719 -2.4375 51.785156 3.136719 45.980469 8.128906 C 43.542969 10.101562 41.105469 12.074219 38.316406 13.585938 C 37.15625 14.28125 35.996094 14.863281 34.601562 15.09375 C 33.207031 15.328125 32.164062 14.628906 31.929688 13.238281 C 31.582031 11.726562 31.816406 10.21875 32.164062 8.824219 C 32.859375 5.921875 33.671875 3.019531 34.832031 0.230469 C 39.941406 -12.425781 47.605469 -23.453125 56.316406 -33.90625 C 57.128906 -34.949219 58.289062 -35.648438 59.449219 -36.34375 C 62.816406 -38.199219 66.066406 -40.175781 69.320312 -42.148438 C 73.035156 -44.355469 76.632812 -46.910156 79.886719 -49.695312 C 82.207031 -51.671875 84.296875 -53.875 85.921875 -56.429688 C 86.503906 -57.359375 86.96875 -58.289062 87.199219 -59.449219 C 87.316406 -60.144531 86.621094 -61.074219 85.808594 -61.191406 Z M 84.996094 -59.101562 C 84.761719 -58.289062 84.414062 -57.476562 83.949219 -56.894531 C 82.441406 -54.457031 80.464844 -52.367188 78.375 -50.507812 C 73.730469 -46.5625 68.738281 -43.195312 63.628906 -40.292969 C 63.164062 -39.941406 62.585938 -39.941406 62.003906 -39.828125 C 62.003906 -39.363281 61.65625 -39.128906 61.191406 -38.898438 L 61.308594 -39.015625 C 61.191406 -39.476562 61.421875 -39.828125 62.003906 -39.828125 C 62.003906 -40.640625 62.46875 -41.105469 62.933594 -41.566406 C 68.042969 -47.140625 73.265625 -52.484375 79.304688 -57.011719 C 80.8125 -58.171875 82.324219 -59.332031 84.066406 -60.03125 C 84.296875 -60.03125 84.644531 -59.914062 84.761719 -59.796875 C 84.996094 -59.566406 85.109375 -59.21875 84.996094 -59.101562 Z M 29.261719 -23.453125 C 29.261719 -23.339844 29.261719 -23.339844 29.261719 -23.222656 L 29.144531 -23.222656 C 29.027344 -23.222656 29.027344 -23.339844 29.261719 -23.453125 Z M 22.527344 -17.183594 C 18.808594 -11.84375 14.863281 -6.964844 10.101562 -2.671875 C 8.707031 -1.507812 7.316406 -0.464844 5.574219 0.117188 C 4.527344 0.347656 3.484375 0.582031 2.554688 -0.230469 C 1.625 -1.160156 1.859375 -2.207031 2.207031 -3.25 C 2.671875 -4.761719 3.484375 -6.039062 4.644531 -7.082031 C 5.921875 -8.242188 7.199219 -9.40625 8.59375 -10.449219 C 12.886719 -13.585938 17.53125 -16.023438 22.757812 -18.578125 C 22.640625 -17.648438 22.640625 -17.417969 22.527344 -17.183594 Z M 22.527344 -17.183594 "/></g></g></g><g fill="#000000" fill-opacity="1"><g transform="translate(197.170759, 212.462914)"><g><path d="M 30.074219 -0.464844 C 35.183594 -1.507812 39.941406 -3.714844 44.472656 -6.152344 C 52.367188 -10.449219 59.683594 -15.675781 66.648438 -21.25 C 68.972656 -23.105469 71.175781 -25.3125 73.382812 -27.285156 C 71.175781 -27.75 70.132812 -26.359375 68.972656 -25.3125 C 60.84375 -17.765625 51.785156 -11.496094 42.03125 -6.269531 C 37.851562 -3.949219 33.441406 -2.207031 28.796875 -1.160156 C 25.542969 -0.582031 22.527344 -1.160156 19.621094 -2.671875 C 17.648438 -3.597656 16.253906 -5.339844 15.675781 -7.546875 C 15.09375 -9.871094 14.980469 -12.074219 15.441406 -14.398438 C 17.648438 -25.660156 23.570312 -34.71875 31.117188 -43.078125 C 31.816406 -43.773438 32.511719 -44.007812 33.671875 -43.660156 C 36.109375 -42.960938 38.664062 -42.382812 40.988281 -41.453125 C 46.792969 -39.476562 52.484375 -39.828125 58.289062 -41.566406 C 61.074219 -42.496094 63.628906 -43.542969 65.835938 -45.398438 C 69.667969 -48.652344 69.203125 -53.296875 64.675781 -55.734375 C 63.050781 -56.664062 61.191406 -57.242188 59.332031 -57.359375 C 52.714844 -57.941406 46.5625 -56.429688 40.988281 -52.949219 C 38.085938 -51.207031 35.296875 -49.230469 32.742188 -46.910156 C 31.816406 -45.980469 30.769531 -45.75 29.375 -46.210938 C 27.519531 -46.910156 25.542969 -47.375 23.570312 -47.953125 C 19.042969 -49.347656 14.515625 -49.582031 9.871094 -49.117188 C 5.691406 -48.652344 2.320312 -46.675781 0.582031 -42.730469 C -0.929688 -39.363281 0.582031 -35.878906 3.714844 -34.601562 C 4.296875 -34.371094 4.875 -34.371094 5.226562 -34.832031 C 0.929688 -37.738281 0.582031 -42.03125 4.414062 -45.515625 C 6.269531 -47.140625 8.476562 -48.070312 11.03125 -48.304688 C 17.53125 -49 23.6875 -47.257812 29.609375 -44.820312 C 29.726562 -44.820312 29.726562 -44.585938 29.726562 -44.472656 C 29.492188 -43.308594 28.5625 -42.730469 27.867188 -41.917969 C 24.382812 -37.96875 21.480469 -33.671875 18.925781 -29.261719 C 16.371094 -24.617188 14.398438 -19.621094 13.46875 -14.398438 C 13.121094 -12.191406 13.121094 -9.984375 13.703125 -7.894531 C 14.398438 -4.875 16.140625 -2.785156 18.925781 -1.507812 C 22.527344 0 26.242188 0.347656 30.074219 -0.464844 Z M 50.160156 -40.988281 C 49 -40.871094 47.839844 -40.871094 46.910156 -41.105469 C 42.730469 -42.148438 38.78125 -43.308594 34.71875 -44.472656 C 33.90625 -44.703125 33.671875 -45.515625 34.253906 -46.097656 C 40.640625 -51.902344 47.605469 -56.316406 56.546875 -56.546875 C 58.519531 -56.429688 60.378906 -56.429688 62.238281 -55.617188 C 63.050781 -55.152344 63.976562 -54.804688 64.675781 -54.222656 C 67.230469 -52.019531 67.34375 -49.117188 65.140625 -46.675781 C 63.976562 -45.515625 62.585938 -44.585938 61.074219 -43.890625 C 57.59375 -42.265625 53.875 -41.453125 50.160156 -40.988281 Z M 50.160156 -40.988281 "/></g></g></g><g fill="#000000" fill-opacity="1"><g transform="translate(44.518085, 266.856592)"><g><path d="M 15.007812 -7.957031 C 15.878906 -7.992188 16.675781 -8.066406 17.402344 -8.140625 C 18.128906 -8.210938 18.929688 -8.320312 19.800781 -8.464844 L 19.984375 -10.28125 C 19.113281 -10.171875 18.347656 -10.066406 17.695312 -9.992188 C 17.003906 -9.882812 16.242188 -9.808594 15.40625 -9.738281 C 15.625 -10.753906 15.914062 -11.988281 16.277344 -13.445312 C 16.640625 -14.859375 17.003906 -16.3125 17.367188 -17.804688 C 17.730469 -19.292969 18.09375 -20.746094 18.457031 -22.164062 C 18.820312 -23.582031 19.148438 -24.816406 19.4375 -25.871094 L 15.695312 -25.578125 C 15.40625 -24.523438 15.078125 -23.289062 14.714844 -21.910156 C 14.351562 -20.492188 13.953125 -19.039062 13.589844 -17.550781 C 13.226562 -16.058594 12.863281 -14.605469 12.5 -13.1875 C 12.136719 -11.773438 11.808594 -10.535156 11.589844 -9.519531 C 10.609375 -9.375 9.664062 -9.300781 8.757812 -9.265625 C 7.8125 -9.191406 6.867188 -9.191406 5.886719 -9.191406 C 6.105469 -10.210938 6.394531 -11.445312 6.722656 -12.863281 C 7.046875 -14.277344 7.375 -15.734375 7.738281 -17.222656 C 8.101562 -18.675781 8.429688 -20.128906 8.792969 -21.546875 C 9.15625 -22.925781 9.484375 -24.160156 9.773438 -25.214844 L 5.996094 -25.324219 C 4.394531 -20.417969 3.050781 -15.441406 2 -10.390625 C 0.910156 -5.339844 0.144531 -0.4375 -0.328125 4.359375 C -0.363281 4.652344 -0.253906 4.90625 0 5.085938 C 0.21875 5.269531 0.507812 5.378906 0.871094 5.449219 C 1.199219 5.523438 1.5625 5.558594 1.960938 5.523438 C 2.324219 5.488281 2.652344 5.378906 2.941406 5.230469 C 2.980469 4.976562 3.050781 4.503906 3.199219 3.851562 L 3.667969 1.5625 C 3.816406 0.726562 3.996094 -0.183594 4.214844 -1.125 C 4.394531 -2.070312 4.578125 -2.941406 4.757812 -3.777344 C 4.90625 -4.613281 5.050781 -5.339844 5.195312 -5.996094 C 5.339844 -6.648438 5.414062 -7.085938 5.488281 -7.339844 C 6.429688 -7.375 7.375 -7.410156 8.320312 -7.484375 C 9.265625 -7.519531 10.210938 -7.59375 11.226562 -7.667969 C 11.15625 -7.304688 11.046875 -6.832031 10.9375 -6.214844 C 10.792969 -5.558594 10.683594 -4.867188 10.574219 -4.105469 C 10.429688 -3.304688 10.320312 -2.507812 10.210938 -1.671875 C 10.066406 -0.800781 9.957031 0 9.882812 0.800781 C 9.773438 1.597656 9.699219 2.289062 9.628906 2.941406 C 9.554688 3.597656 9.519531 4.070312 9.519531 4.433594 C 9.519531 4.941406 9.699219 5.269531 10.101562 5.414062 C 10.464844 5.558594 10.898438 5.632812 11.371094 5.632812 C 11.84375 5.632812 12.28125 5.558594 12.644531 5.414062 C 13.007812 5.269531 13.226562 5.160156 13.226562 5.015625 C 13.226562 4.652344 13.226562 4.140625 13.296875 3.453125 C 13.371094 2.796875 13.445312 2.035156 13.550781 1.164062 C 13.625 0.328125 13.734375 -0.546875 13.878906 -1.488281 C 14.023438 -2.398438 14.132812 -3.269531 14.277344 -4.140625 C 14.425781 -4.976562 14.535156 -5.742188 14.679688 -6.429688 C 14.789062 -7.085938 14.898438 -7.59375 15.007812 -7.957031 Z M 15.007812 -7.957031 "/></g></g></g><g fill="#000000" fill-opacity="1"><g transform="translate(67.444827, 266.856592)"><g><path d="M 6.503906 -0.835938 C 7.230469 -1.488281 7.738281 -2.070312 7.992188 -2.507812 C 8.246094 -2.941406 8.394531 -3.199219 8.394531 -3.234375 C 8.355469 -2.796875 8.464844 -2.363281 8.683594 -1.960938 C 8.902344 -1.5625 9.15625 -1.199219 9.519531 -0.910156 C 9.847656 -0.617188 10.210938 -0.363281 10.644531 -0.21875 C 11.082031 -0.0351562 11.480469 0.0351562 11.917969 0 C 12.679688 0 13.40625 -0.328125 14.097656 -0.980469 C 14.789062 -1.636719 15.40625 -2.363281 15.949219 -3.234375 C 16.460938 -4.070312 16.929688 -4.90625 17.292969 -5.742188 C 17.660156 -6.539062 17.875 -7.15625 18.023438 -7.558594 L 16.96875 -7.957031 C 16.824219 -7.59375 16.53125 -7.085938 16.167969 -6.359375 C 15.804688 -5.632812 15.40625 -4.941406 14.96875 -4.214844 C 14.535156 -3.488281 14.0625 -2.871094 13.625 -2.363281 C 13.1875 -1.816406 12.824219 -1.5625 12.535156 -1.5625 C 12.316406 -1.5625 12.136719 -1.636719 12.027344 -1.816406 C 11.917969 -2 11.84375 -2.214844 11.808594 -2.433594 C 11.773438 -2.652344 11.773438 -2.90625 11.773438 -3.160156 C 11.773438 -3.414062 11.808594 -3.632812 11.84375 -3.777344 C 11.953125 -4.652344 12.136719 -5.632812 12.390625 -6.722656 C 12.644531 -7.8125 12.898438 -8.828125 13.1875 -9.847656 C 13.480469 -10.863281 13.734375 -11.773438 13.988281 -12.570312 C 14.207031 -13.371094 14.386719 -13.988281 14.535156 -14.425781 C 14.535156 -14.496094 14.460938 -14.570312 14.277344 -14.640625 C 14.097656 -14.714844 13.878906 -14.789062 13.625 -14.859375 C 13.335938 -14.898438 13.042969 -14.898438 12.71875 -14.898438 C 12.390625 -14.859375 12.097656 -14.75 11.808594 -14.605469 C 11.808594 -14.605469 11.773438 -14.679688 11.699219 -14.859375 C 11.589844 -15.007812 11.445312 -15.1875 11.226562 -15.40625 C 11.007812 -15.625 10.71875 -15.804688 10.390625 -16.023438 C 10.027344 -16.203125 9.664062 -16.3125 9.230469 -16.386719 C 8.320312 -16.460938 7.375 -16.351562 6.359375 -16.058594 C 5.339844 -15.734375 4.359375 -15.152344 3.488281 -14.316406 C 2.578125 -13.480469 1.816406 -12.351562 1.164062 -10.898438 C 0.507812 -9.445312 0.144531 -7.667969 0.0351562 -5.523438 C -0.0742188 -3.996094 0.109375 -2.796875 0.617188 -1.960938 C 1.125 -1.125 1.707031 -0.546875 2.433594 -0.253906 C 3.160156 0.0351562 3.886719 0.144531 4.652344 0 C 5.414062 -0.144531 6.03125 -0.398438 6.503906 -0.835938 Z M 6.320312 -2.035156 C 5.886719 -1.742188 5.523438 -1.636719 5.230469 -1.78125 C 4.90625 -1.925781 4.652344 -2.179688 4.433594 -2.542969 C 4.214844 -2.90625 4.070312 -3.34375 3.996094 -3.886719 C 3.925781 -4.394531 3.886719 -4.941406 3.960938 -5.449219 C 4.03125 -6.320312 4.214844 -7.265625 4.46875 -8.355469 C 4.722656 -9.410156 5.085938 -10.429688 5.523438 -11.371094 C 5.957031 -12.316406 6.46875 -13.152344 7.085938 -13.84375 C 7.703125 -14.496094 8.429688 -14.859375 9.230469 -14.933594 C 9.519531 -14.933594 9.738281 -14.898438 9.957031 -14.824219 C 10.171875 -14.75 10.320312 -14.640625 10.464844 -14.535156 C 10.609375 -14.386719 10.71875 -14.277344 10.792969 -14.132812 C 10.863281 -13.988281 10.898438 -13.878906 10.972656 -13.808594 C 10.644531 -12.972656 10.355469 -12.027344 10.136719 -11.007812 C 9.882812 -9.992188 9.59375 -8.9375 9.300781 -7.882812 C 8.972656 -6.792969 8.574219 -5.777344 8.140625 -4.757812 C 7.667969 -3.742188 7.046875 -2.835938 6.320312 -2.035156 Z M 6.320312 -2.035156 "/></g></g></g><g fill="#000000" fill-opacity="1"><g transform="translate(88.11886, 266.856592)"><g><path d="M 4.90625 -12.933594 L 5.59375 -16.132812 C 5.59375 -16.242188 5.449219 -16.351562 5.125 -16.496094 C 4.796875 -16.605469 4.433594 -16.675781 3.996094 -16.675781 C 3.5625 -16.675781 3.125 -16.640625 2.6875 -16.53125 C 2.253906 -16.421875 2 -16.203125 1.851562 -15.914062 C 1.308594 -13.84375 0.871094 -11.773438 0.582031 -9.738281 C 0.289062 -7.703125 0.0742188 -5.777344 0 -3.960938 C -0.0351562 -3.523438 0 -3.050781 0.144531 -2.578125 C 0.289062 -2.105469 0.472656 -1.671875 0.726562 -1.308594 C 0.980469 -0.910156 1.273438 -0.582031 1.597656 -0.363281 C 1.925781 -0.109375 2.289062 0 2.652344 0 C 2.6875 0 2.761719 -0.363281 2.90625 -1.089844 C 3.015625 -1.816406 3.199219 -2.761719 3.414062 -3.886719 C 3.632812 -4.976562 3.886719 -6.175781 4.214844 -7.484375 C 4.503906 -8.757812 4.867188 -9.957031 5.304688 -11.082031 C 5.742188 -12.171875 6.214844 -13.117188 6.757812 -13.84375 C 7.304688 -14.570312 7.921875 -14.96875 8.609375 -14.96875 C 8.902344 -14.96875 9.15625 -14.859375 9.375 -14.714844 C 9.59375 -14.535156 9.738281 -14.316406 9.882812 -14.0625 C 9.992188 -13.769531 10.066406 -13.480469 10.136719 -13.152344 C 10.171875 -12.824219 10.171875 -12.5 10.136719 -12.207031 C 9.992188 -11.261719 9.808594 -10.429688 9.664062 -9.699219 C 9.519531 -8.972656 9.335938 -8.285156 9.191406 -7.628906 C 9.011719 -6.976562 8.828125 -6.285156 8.683594 -5.59375 C 8.539062 -4.867188 8.394531 -4.070312 8.285156 -3.199219 C 8.175781 -2.46875 8.246094 -1.890625 8.464844 -1.453125 C 8.683594 -1.015625 9.011719 -0.652344 9.375 -0.398438 C 9.738281 -0.144531 10.101562 0.0351562 10.464844 0.109375 C 10.828125 0.21875 11.117188 0.253906 11.300781 0.253906 C 12.027344 0.289062 12.679688 0.0351562 13.335938 -0.546875 C 13.988281 -1.125 14.535156 -1.78125 15.042969 -2.578125 C 15.550781 -3.378906 15.949219 -4.179688 16.3125 -4.976562 C 16.675781 -5.777344 16.929688 -6.429688 17.148438 -6.902344 L 16.421875 -7.375 C 16.277344 -6.941406 16.023438 -6.394531 15.695312 -5.667969 C 15.371094 -4.941406 15.007812 -4.25 14.605469 -3.597656 C 14.171875 -2.941406 13.769531 -2.363281 13.335938 -1.890625 C 12.898438 -1.378906 12.535156 -1.164062 12.246094 -1.199219 C 11.953125 -1.199219 11.734375 -1.308594 11.589844 -1.453125 C 11.445312 -1.597656 11.371094 -1.816406 11.371094 -2.035156 C 11.335938 -2.253906 11.335938 -2.46875 11.410156 -2.726562 C 11.445312 -2.980469 11.480469 -3.234375 11.554688 -3.488281 C 11.699219 -4.289062 11.882812 -5.050781 12.0625 -5.703125 C 12.207031 -6.359375 12.390625 -6.976562 12.535156 -7.628906 C 12.679688 -8.285156 12.863281 -8.9375 13.007812 -9.664062 C 13.152344 -10.355469 13.296875 -11.15625 13.445312 -12.097656 C 13.515625 -12.753906 13.515625 -13.335938 13.371094 -13.84375 C 13.226562 -14.351562 13.042969 -14.789062 12.753906 -15.152344 C 12.460938 -15.515625 12.136719 -15.769531 11.773438 -15.988281 C 11.371094 -16.203125 10.972656 -16.3125 10.535156 -16.386719 C 9.519531 -16.460938 8.503906 -16.242188 7.484375 -15.734375 C 6.46875 -15.222656 5.632812 -14.277344 4.90625 -12.933594 Z M 4.90625 -12.933594 "/></g></g></g><g fill="#000000" fill-opacity="1"><g transform="translate(107.775548, 266.856592)"><g><path d="M 4.90625 -12.933594 L 5.59375 -16.132812 C 5.59375 -16.242188 5.449219 -16.351562 5.125 -16.496094 C 4.796875 -16.605469 4.433594 -16.675781 3.996094 -16.675781 C 3.5625 -16.675781 3.125 -16.640625 2.6875 -16.53125 C 2.253906 -16.421875 2 -16.203125 1.851562 -15.914062 C 1.308594 -13.84375 0.871094 -11.773438 0.582031 -9.738281 C 0.289062 -7.703125 0.0742188 -5.777344 0 -3.960938 C -0.0351562 -3.523438 0 -3.050781 0.144531 -2.578125 C 0.289062 -2.105469 0.472656 -1.671875 0.726562 -1.308594 C 0.980469 -0.910156 1.273438 -0.582031 1.597656 -0.363281 C 1.925781 -0.109375 2.289062 0 2.652344 0 C 2.6875 0 2.761719 -0.363281 2.90625 -1.089844 C 3.015625 -1.816406 3.199219 -2.761719 3.414062 -3.886719 C 3.632812 -4.976562 3.886719 -6.175781 4.214844 -7.484375 C 4.503906 -8.757812 4.867188 -9.957031 5.304688 -11.082031 C 5.742188 -12.171875 6.214844 -13.117188 6.757812 -13.84375 C 7.304688 -14.570312 7.921875 -14.96875 8.609375 -14.96875 C 8.902344 -14.96875 9.15625 -14.859375 9.375 -14.714844 C 9.59375 -14.535156 9.738281 -14.316406 9.882812 -14.0625 C 9.992188 -13.769531 10.066406 -13.480469 10.136719 -13.152344 C 10.171875 -12.824219 10.171875 -12.5 10.136719 -12.207031 C 9.992188 -11.261719 9.808594 -10.429688 9.664062 -9.699219 C 9.519531 -8.972656 9.335938 -8.285156 9.191406 -7.628906 C 9.011719 -6.976562 8.828125 -6.285156 8.683594 -5.59375 C 8.539062 -4.867188 8.394531 -4.070312 8.285156 -3.199219 C 8.175781 -2.46875 8.246094 -1.890625 8.464844 -1.453125 C 8.683594 -1.015625 9.011719 -0.652344 9.375 -0.398438 C 9.738281 -0.144531 10.101562 0.0351562 10.464844 0.109375 C 10.828125 0.21875 11.117188 0.253906 11.300781 0.253906 C 12.027344 0.289062 12.679688 0.0351562 13.335938 -0.546875 C 13.988281 -1.125 14.535156 -1.78125 15.042969 -2.578125 C 15.550781 -3.378906 15.949219 -4.179688 16.3125 -4.976562 C 16.675781 -5.777344 16.929688 -6.429688 17.148438 -6.902344 L 16.421875 -7.375 C 16.277344 -6.941406 16.023438 -6.394531 15.695312 -5.667969 C 15.371094 -4.941406 15.007812 -4.25 14.605469 -3.597656 C 14.171875 -2.941406 13.769531 -2.363281 13.335938 -1.890625 C 12.898438 -1.378906 12.535156 -1.164062 12.246094 -1.199219 C 11.953125 -1.199219 11.734375 -1.308594 11.589844 -1.453125 C 11.445312 -1.597656 11.371094 -1.816406 11.371094 -2.035156 C 11.335938 -2.253906 11.335938 -2.46875 11.410156 -2.726562 C 11.445312 -2.980469 11.480469 -3.234375 11.554688 -3.488281 C 11.699219 -4.289062 11.882812 -5.050781 12.0625 -5.703125 C 12.207031 -6.359375 12.390625 -6.976562 12.535156 -7.628906 C 12.679688 -8.285156 12.863281 -8.9375 13.007812 -9.664062 C 13.152344 -10.355469 13.296875 -11.15625 13.445312 -12.097656 C 13.515625 -12.753906 13.515625 -13.335938 13.371094 -13.84375 C 13.226562 -14.351562 13.042969 -14.789062 12.753906 -15.152344 C 12.460938 -15.515625 12.136719 -15.769531 11.773438 -15.988281 C 11.371094 -16.203125 10.972656 -16.3125 10.535156 -16.386719 C 9.519531 -16.460938 8.503906 -16.242188 7.484375 -15.734375 C 6.46875 -15.222656 5.632812 -14.277344 4.90625 -12.933594 Z M 4.90625 -12.933594 "/></g></g></g><g fill="#000000" fill-opacity="1"><g transform="translate(127.43224, 266.856592)"><g><path d="M 6.503906 -0.835938 C 7.230469 -1.488281 7.738281 -2.070312 7.992188 -2.507812 C 8.246094 -2.941406 8.394531 -3.199219 8.394531 -3.234375 C 8.355469 -2.796875 8.464844 -2.363281 8.683594 -1.960938 C 8.902344 -1.5625 9.15625 -1.199219 9.519531 -0.910156 C 9.847656 -0.617188 10.210938 -0.363281 10.644531 -0.21875 C 11.082031 -0.0351562 11.480469 0.0351562 11.917969 0 C 12.679688 0 13.40625 -0.328125 14.097656 -0.980469 C 14.789062 -1.636719 15.40625 -2.363281 15.949219 -3.234375 C 16.460938 -4.070312 16.929688 -4.90625 17.292969 -5.742188 C 17.660156 -6.539062 17.875 -7.15625 18.023438 -7.558594 L 16.96875 -7.957031 C 16.824219 -7.59375 16.53125 -7.085938 16.167969 -6.359375 C 15.804688 -5.632812 15.40625 -4.941406 14.96875 -4.214844 C 14.535156 -3.488281 14.0625 -2.871094 13.625 -2.363281 C 13.1875 -1.816406 12.824219 -1.5625 12.535156 -1.5625 C 12.316406 -1.5625 12.136719 -1.636719 12.027344 -1.816406 C 11.917969 -2 11.84375 -2.214844 11.808594 -2.433594 C 11.773438 -2.652344 11.773438 -2.90625 11.773438 -3.160156 C 11.773438 -3.414062 11.808594 -3.632812 11.84375 -3.777344 C 11.953125 -4.652344 12.136719 -5.632812 12.390625 -6.722656 C 12.644531 -7.8125 12.898438 -8.828125 13.1875 -9.847656 C 13.480469 -10.863281 13.734375 -11.773438 13.988281 -12.570312 C 14.207031 -13.371094 14.386719 -13.988281 14.535156 -14.425781 C 14.535156 -14.496094 14.460938 -14.570312 14.277344 -14.640625 C 14.097656 -14.714844 13.878906 -14.789062 13.625 -14.859375 C 13.335938 -14.898438 13.042969 -14.898438 12.71875 -14.898438 C 12.390625 -14.859375 12.097656 -14.75 11.808594 -14.605469 C 11.808594 -14.605469 11.773438 -14.679688 11.699219 -14.859375 C 11.589844 -15.007812 11.445312 -15.1875 11.226562 -15.40625 C 11.007812 -15.625 10.71875 -15.804688 10.390625 -16.023438 C 10.027344 -16.203125 9.664062 -16.3125 9.230469 -16.386719 C 8.320312 -16.460938 7.375 -16.351562 6.359375 -16.058594 C 5.339844 -15.734375 4.359375 -15.152344 3.488281 -14.316406 C 2.578125 -13.480469 1.816406 -12.351562 1.164062 -10.898438 C 0.507812 -9.445312 0.144531 -7.667969 0.0351562 -5.523438 C -0.0742188 -3.996094 0.109375 -2.796875 0.617188 -1.960938 C 1.125 -1.125 1.707031 -0.546875 2.433594 -0.253906 C 3.160156 0.0351562 3.886719 0.144531 4.652344 0 C 5.414062 -0.144531 6.03125 -0.398438 6.503906 -0.835938 Z M 6.320312 -2.035156 C 5.886719 -1.742188 5.523438 -1.636719 5.230469 -1.78125 C 4.90625 -1.925781 4.652344 -2.179688 4.433594 -2.542969 C 4.214844 -2.90625 4.070312 -3.34375 3.996094 -3.886719 C 3.925781 -4.394531 3.886719 -4.941406 3.960938 -5.449219 C 4.03125 -6.320312 4.214844 -7.265625 4.46875 -8.355469 C 4.722656 -9.410156 5.085938 -10.429688 5.523438 -11.371094 C 5.957031 -12.316406 6.46875 -13.152344 7.085938 -13.84375 C 7.703125 -14.496094 8.429688 -14.859375 9.230469 -14.933594 C 9.519531 -14.933594 9.738281 -14.898438 9.957031 -14.824219 C 10.171875 -14.75 10.320312 -14.640625 10.464844 -14.535156 C 10.609375 -14.386719 10.71875 -14.277344 10.792969 -14.132812 C 10.863281 -13.988281 10.898438 -13.878906 10.972656 -13.808594 C 10.644531 -12.972656 10.355469 -12.027344 10.136719 -11.007812 C 9.882812 -9.992188 9.59375 -8.9375 9.300781 -7.882812 C 8.972656 -6.792969 8.574219 -5.777344 8.140625 -4.757812 C 7.667969 -3.742188 7.046875 -2.835938 6.320312 -2.035156 Z M 6.320312 -2.035156 "/></g></g></g><g fill="#000000" fill-opacity="1"><g transform="translate(148.106276, 266.856592)"><g><path d="M 3.5625 -5.050781 L 8.03125 -25.578125 C 8.03125 -25.6875 7.882812 -25.796875 7.519531 -25.90625 C 7.15625 -25.980469 6.722656 -26.050781 6.25 -26.050781 C 5.777344 -26.050781 5.339844 -25.941406 4.90625 -25.796875 C 4.46875 -25.652344 4.179688 -25.359375 4.105469 -24.996094 C 3.597656 -23.070312 3.125 -21.21875 2.726562 -19.402344 C 2.289062 -17.585938 1.925781 -15.914062 1.636719 -14.351562 C 1.308594 -12.789062 1.015625 -11.371094 0.800781 -10.136719 C 0.582031 -8.902344 0.398438 -7.882812 0.289062 -7.085938 C 0 -5.523438 -0.109375 -4.25 -0.0351562 -3.304688 C 0.0351562 -2.324219 0.183594 -1.5625 0.472656 -1.054688 C 0.726562 -0.546875 1.054688 -0.21875 1.488281 -0.0742188 C 1.925781 0.0742188 2.363281 0.0351562 2.871094 -0.109375 C 3.199219 -0.144531 3.523438 -0.507812 3.816406 -1.199219 C 4.105469 -1.851562 4.433594 -2.6875 4.757812 -3.707031 C 5.085938 -4.6875 5.449219 -5.742188 5.8125 -6.867188 C 6.175781 -7.992188 6.578125 -9.046875 7.011719 -10.027344 C 7.449219 -10.972656 7.957031 -11.808594 8.539062 -12.460938 C 9.121094 -13.117188 9.773438 -13.480469 10.5 -13.515625 C 10.71875 -13.515625 10.9375 -13.445312 11.082031 -13.296875 C 11.226562 -13.152344 11.335938 -12.972656 11.410156 -12.753906 C 11.480469 -12.535156 11.519531 -12.28125 11.519531 -12.027344 C 11.519531 -11.773438 11.519531 -11.554688 11.519531 -11.335938 C 11.445312 -10.390625 11.300781 -9.519531 11.082031 -8.757812 C 10.863281 -7.957031 10.609375 -7.195312 10.390625 -6.46875 C 10.171875 -5.742188 9.957031 -4.976562 9.773438 -4.214844 C 9.59375 -3.414062 9.519531 -2.578125 9.519531 -1.636719 C 9.519531 -1.125 9.699219 -0.691406 10.066406 -0.289062 C 10.429688 0.144531 10.898438 0.328125 11.480469 0.289062 C 12.171875 0.289062 12.863281 0.0742188 13.515625 -0.328125 C 14.171875 -0.691406 14.824219 -1.199219 15.40625 -1.78125 C 15.988281 -2.363281 16.53125 -3.015625 17.039062 -3.742188 C 17.550781 -4.46875 17.984375 -5.160156 18.386719 -5.851562 C 18.75 -6.503906 19.074219 -7.15625 19.328125 -7.738281 C 19.546875 -8.320312 19.730469 -8.757812 19.800781 -9.046875 L 18.75 -9.15625 C 18.675781 -8.902344 18.53125 -8.539062 18.3125 -8.101562 C 18.09375 -7.628906 17.804688 -7.121094 17.511719 -6.578125 C 17.1875 -6.03125 16.824219 -5.488281 16.460938 -4.90625 C 16.058594 -4.324219 15.660156 -3.777344 15.296875 -3.34375 C 14.898438 -2.871094 14.535156 -2.507812 14.171875 -2.214844 C 13.808594 -1.925781 13.480469 -1.78125 13.226562 -1.816406 C 13.007812 -1.816406 12.898438 -1.925781 12.824219 -2.070312 C 12.753906 -2.214844 12.753906 -2.433594 12.753906 -2.652344 C 12.753906 -2.871094 12.753906 -3.125 12.824219 -3.378906 C 12.898438 -3.632812 12.972656 -3.851562 13.042969 -4.070312 C 13.1875 -4.578125 13.371094 -5.230469 13.625 -6.03125 C 13.878906 -6.832031 14.097656 -7.667969 14.316406 -8.574219 C 14.496094 -9.445312 14.640625 -10.355469 14.714844 -11.261719 C 14.789062 -12.136719 14.75 -12.972656 14.570312 -13.699219 C 14.386719 -14.425781 14.0625 -15.007812 13.550781 -15.476562 C 13.042969 -15.914062 12.28125 -16.167969 11.335938 -16.167969 C 10.246094 -16.167969 9.265625 -15.734375 8.394531 -14.898438 C 7.519531 -14.0625 6.757812 -13.042969 6.105469 -11.882812 C 5.449219 -10.71875 4.941406 -9.484375 4.503906 -8.246094 C 4.070312 -6.976562 3.777344 -5.921875 3.5625 -5.050781 Z M 3.5625 -5.050781 "/></g></g></g><g fill="#000000" fill-opacity="1"><g transform="translate(169.507006, 266.856592)"><g><path d="M 1.671875 11.046875 C 1.707031 11.046875 1.78125 10.898438 1.851562 10.609375 C 1.925781 10.320312 2.035156 9.992188 2.105469 9.554688 C 2.179688 9.121094 2.289062 8.648438 2.398438 8.140625 C 2.46875 7.628906 2.578125 7.121094 2.652344 6.683594 C 2.726562 6.25 2.796875 5.851562 2.871094 5.488281 C 2.90625 5.160156 2.941406 4.941406 2.980469 4.867188 C 3.125 4.03125 3.304688 3.160156 3.488281 2.214844 C 3.667969 1.273438 3.851562 0.328125 4.070312 -0.652344 C 4.324219 -0.472656 4.652344 -0.328125 5.015625 -0.21875 C 5.378906 -0.0742188 5.703125 0 5.996094 0 C 7.15625 0.0742188 8.285156 -0.109375 9.410156 -0.546875 C 10.5 -0.980469 11.519531 -1.636719 12.425781 -2.542969 C 13.335938 -3.453125 14.097656 -4.578125 14.75 -5.921875 C 15.40625 -7.265625 15.839844 -8.792969 16.058594 -10.535156 C 16.203125 -11.699219 16.132812 -12.644531 15.878906 -13.40625 C 15.625 -14.171875 15.261719 -14.789062 14.824219 -15.222656 C 14.386719 -15.660156 13.914062 -15.988281 13.40625 -16.167969 C 12.898438 -16.3125 12.460938 -16.421875 12.097656 -16.421875 C 11.480469 -16.421875 10.898438 -16.3125 10.390625 -16.097656 C 9.882812 -15.878906 9.375 -15.625 8.902344 -15.261719 C 8.429688 -14.898438 7.992188 -14.460938 7.59375 -13.988281 C 7.195312 -13.515625 6.832031 -13.007812 6.46875 -12.5 L 7.484375 -16.421875 C 7.519531 -16.53125 7.375 -16.640625 7.011719 -16.75 C 6.648438 -16.859375 6.214844 -16.929688 5.742188 -16.929688 C 5.269531 -16.929688 4.796875 -16.894531 4.324219 -16.785156 C 3.851562 -16.640625 3.523438 -16.421875 3.378906 -16.132812 C 3.125 -15.1875 2.871094 -14.171875 2.617188 -13.007812 C 2.324219 -11.84375 2.070312 -10.644531 1.816406 -9.410156 C 1.527344 -8.175781 1.273438 -6.902344 1.015625 -5.632812 C 0.726562 -4.324219 0.472656 -3.089844 0.253906 -1.925781 C 0 -0.726562 -0.21875 0.398438 -0.398438 1.417969 C -0.582031 2.46875 -0.726562 3.378906 -0.800781 4.140625 C -0.945312 5.125 -0.980469 6.03125 -0.910156 6.867188 C -0.871094 7.738281 -0.761719 8.464844 -0.546875 9.082031 C -0.328125 9.699219 -0.0351562 10.171875 0.328125 10.535156 C 0.691406 10.898438 1.164062 11.046875 1.671875 11.046875 Z M 6.105469 -9.300781 C 6.25 -9.773438 6.539062 -10.320312 6.941406 -10.972656 C 7.304688 -11.625 7.738281 -12.207031 8.246094 -12.789062 C 8.757812 -13.371094 9.265625 -13.84375 9.808594 -14.207031 C 10.355469 -14.570312 10.863281 -14.75 11.335938 -14.75 C 11.699219 -14.714844 11.953125 -14.535156 12.097656 -14.207031 C 12.246094 -13.878906 12.316406 -13.515625 12.351562 -13.082031 C 12.351562 -12.644531 12.351562 -12.171875 12.316406 -11.734375 C 12.246094 -11.300781 12.207031 -10.9375 12.171875 -10.683594 C 12.097656 -10.246094 11.953125 -9.738281 11.808594 -9.15625 C 11.625 -8.539062 11.410156 -7.882812 11.15625 -7.230469 C 10.863281 -6.539062 10.574219 -5.851562 10.210938 -5.195312 C 9.847656 -4.503906 9.484375 -3.886719 9.046875 -3.34375 C 8.609375 -2.796875 8.175781 -2.363281 7.667969 -2.035156 C 7.15625 -1.671875 6.648438 -1.527344 6.140625 -1.527344 C 5.851562 -1.527344 5.558594 -1.527344 5.195312 -1.597656 C 4.832031 -1.636719 4.578125 -1.742188 4.394531 -1.890625 C 4.6875 -3.269531 4.941406 -4.542969 5.195312 -5.777344 C 5.414062 -7.011719 5.742188 -8.175781 6.105469 -9.300781 Z M 6.105469 -9.300781 "/></g></g></g><g fill="#000000" fill-opacity="1"><g transform="translate(190.07204, 266.856592)"><g><path d="M 6.976562 0 C 8.285156 0.0351562 9.484375 -0.253906 10.574219 -0.871094 C 11.664062 -1.453125 12.644531 -2.179688 13.480469 -3.050781 C 14.316406 -3.925781 15.007812 -4.796875 15.585938 -5.703125 C 16.132812 -6.578125 16.496094 -7.339844 16.714844 -7.921875 L 15.804688 -8.101562 C 15.550781 -7.59375 15.152344 -6.941406 14.605469 -6.140625 C 14.023438 -5.339844 13.371094 -4.542969 12.609375 -3.816406 C 11.84375 -3.089844 11.007812 -2.46875 10.136719 -1.960938 C 9.265625 -1.453125 8.394531 -1.234375 7.519531 -1.34375 C 6.722656 -1.378906 6.105469 -1.597656 5.632812 -2 C 5.160156 -2.398438 4.796875 -2.871094 4.542969 -3.414062 C 4.289062 -3.960938 4.140625 -4.503906 4.105469 -5.085938 C 4.03125 -5.667969 4.070312 -6.140625 4.140625 -6.578125 C 4.25 -6.539062 4.359375 -6.503906 4.433594 -6.46875 C 4.503906 -6.429688 4.613281 -6.429688 4.757812 -6.429688 C 7.085938 -5.921875 9.011719 -6.066406 10.5 -6.832031 C 11.988281 -7.59375 13.042969 -8.867188 13.699219 -10.683594 C 13.988281 -11.554688 14.097656 -12.351562 13.988281 -13.007812 C 13.878906 -13.660156 13.660156 -14.207031 13.296875 -14.640625 C 12.933594 -15.078125 12.535156 -15.40625 12.0625 -15.660156 C 11.554688 -15.878906 11.117188 -16.058594 10.71875 -16.203125 C 9.699219 -16.460938 8.574219 -16.53125 7.410156 -16.386719 C 6.25 -16.242188 5.125 -15.804688 4.105469 -15.152344 C 3.089844 -14.460938 2.179688 -13.480469 1.417969 -12.171875 C 0.652344 -10.863281 0.183594 -9.230469 0 -7.195312 C -0.0742188 -6.320312 0 -5.449219 0.289062 -4.613281 C 0.546875 -3.742188 0.980469 -2.980469 1.597656 -2.324219 C 2.179688 -1.636719 2.941406 -1.089844 3.851562 -0.652344 C 4.757812 -0.21875 5.8125 0 6.976562 0 Z M 5.050781 -7.410156 L 4.359375 -7.558594 C 4.433594 -8.175781 4.613281 -8.9375 4.90625 -9.882812 C 5.195312 -10.828125 5.558594 -11.699219 6.03125 -12.535156 C 6.46875 -13.335938 7.011719 -14.023438 7.667969 -14.570312 C 8.285156 -15.078125 8.972656 -15.261719 9.773438 -15.113281 C 10.066406 -15.042969 10.320312 -14.898438 10.5 -14.679688 C 10.644531 -14.460938 10.753906 -14.207031 10.828125 -13.914062 C 10.898438 -13.625 10.898438 -13.296875 10.898438 -13.007812 C 10.898438 -12.71875 10.863281 -12.425781 10.863281 -12.207031 C 10.71875 -11.445312 10.464844 -10.753906 10.171875 -10.101562 C 9.882812 -9.445312 9.484375 -8.867188 9.011719 -8.429688 C 8.539062 -7.992188 7.957031 -7.667969 7.304688 -7.449219 C 6.648438 -7.230469 5.886719 -7.230469 5.050781 -7.410156 Z M 5.050781 -7.410156 "/></g></g></g><g fill="#000000" fill-opacity="1"><g transform="translate(209.329062, 266.856592)"><g><path d="M 16.929688 0.109375 C 17.804688 0.109375 18.601562 -0.253906 19.292969 -0.980469 C 19.984375 -1.707031 20.601562 -2.542969 21.109375 -3.523438 C 21.617188 -4.503906 22.019531 -5.488281 22.308594 -6.46875 C 22.601562 -7.449219 22.816406 -8.210938 22.964844 -8.71875 L 22.054688 -8.972656 C 21.945312 -8.539062 21.765625 -7.882812 21.472656 -7.046875 C 21.183594 -6.214844 20.820312 -5.378906 20.457031 -4.578125 C 20.054688 -3.742188 19.65625 -3.015625 19.21875 -2.433594 C 18.785156 -1.851562 18.421875 -1.5625 18.128906 -1.5625 C 17.914062 -1.5625 17.765625 -1.636719 17.660156 -1.78125 C 17.550781 -1.925781 17.476562 -2.070312 17.441406 -2.289062 C 17.367188 -2.46875 17.367188 -2.6875 17.367188 -2.90625 C 17.367188 -3.125 17.367188 -3.304688 17.402344 -3.488281 C 17.550781 -4.289062 17.695312 -5.050781 17.839844 -5.742188 C 17.984375 -6.394531 18.167969 -7.085938 18.347656 -7.777344 C 18.492188 -8.429688 18.675781 -9.15625 18.820312 -9.917969 C 18.964844 -10.644531 19.113281 -11.519531 19.257812 -12.535156 C 19.328125 -13.226562 19.292969 -13.808594 19.074219 -14.316406 C 18.855469 -14.824219 18.601562 -15.222656 18.277344 -15.515625 C 17.914062 -15.804688 17.550781 -16.058594 17.113281 -16.203125 C 16.675781 -16.351562 16.3125 -16.421875 15.949219 -16.421875 C 15.371094 -16.421875 14.859375 -16.277344 14.425781 -16.058594 C 13.953125 -15.839844 13.515625 -15.550781 13.152344 -15.1875 C 12.753906 -14.824219 12.425781 -14.460938 12.136719 -14.023438 C 11.84375 -13.589844 11.625 -13.152344 11.480469 -12.753906 C 11.480469 -13.042969 11.445312 -13.371094 11.410156 -13.734375 C 11.371094 -14.097656 11.300781 -14.460938 11.15625 -14.824219 C 11.007812 -15.1875 10.792969 -15.476562 10.5 -15.769531 C 10.210938 -16.058594 9.847656 -16.242188 9.375 -16.386719 C 8.320312 -16.605469 7.339844 -16.351562 6.46875 -15.585938 C 5.59375 -14.824219 4.867188 -13.699219 4.359375 -12.171875 L 5.125 -16.242188 C 5.125 -16.351562 4.976562 -16.460938 4.6875 -16.566406 C 4.394531 -16.640625 4.03125 -16.714844 3.632812 -16.714844 C 3.234375 -16.714844 2.835938 -16.640625 2.46875 -16.496094 C 2.070312 -16.351562 1.816406 -16.132812 1.671875 -15.839844 C 1.089844 -13.296875 0.691406 -10.863281 0.398438 -8.574219 C 0.109375 -6.25 0 -4.289062 0 -2.617188 C 0 -1.816406 0.21875 -1.164062 0.652344 -0.691406 C 1.089844 -0.21875 1.5625 0 2.070312 0 C 2.289062 0 2.46875 -0.0742188 2.617188 -0.289062 C 2.761719 -0.507812 2.871094 -0.726562 2.980469 -0.980469 C 3.050781 -1.234375 3.125 -1.488281 3.199219 -1.742188 C 3.269531 -1.960938 3.304688 -2.144531 3.304688 -2.214844 C 3.34375 -2.871094 3.414062 -3.667969 3.5625 -4.542969 C 3.707031 -5.414062 3.851562 -6.285156 4.070312 -7.195312 C 4.25 -8.101562 4.46875 -8.972656 4.722656 -9.847656 C 4.941406 -10.683594 5.230469 -11.410156 5.523438 -12.0625 C 5.667969 -12.351562 5.8125 -12.679688 5.996094 -13.007812 C 6.175781 -13.296875 6.359375 -13.589844 6.578125 -13.84375 C 6.792969 -14.0625 6.976562 -14.277344 7.195312 -14.425781 C 7.410156 -14.570312 7.59375 -14.640625 7.8125 -14.640625 C 8.101562 -14.570312 8.320312 -14.242188 8.429688 -13.625 C 8.503906 -13.007812 8.539062 -12.246094 8.503906 -11.335938 C 8.429688 -10.390625 8.355469 -9.375 8.210938 -8.285156 C 8.066406 -7.15625 7.957031 -6.105469 7.8125 -5.125 C 7.667969 -4.105469 7.519531 -3.234375 7.375 -2.46875 C 7.230469 -1.671875 7.195312 -1.164062 7.195312 -0.945312 C 7.15625 -0.582031 7.265625 -0.363281 7.558594 -0.289062 C 7.847656 -0.21875 8.140625 -0.21875 8.503906 -0.289062 C 8.828125 -0.363281 9.15625 -0.507812 9.445312 -0.691406 C 9.738281 -0.871094 9.882812 -1.054688 9.957031 -1.234375 C 10.101562 -1.890625 10.246094 -2.652344 10.429688 -3.5625 C 10.574219 -4.433594 10.753906 -5.378906 10.972656 -6.359375 C 11.191406 -7.339844 11.410156 -8.320312 11.699219 -9.300781 C 11.953125 -10.246094 12.246094 -11.117188 12.570312 -11.882812 C 12.898438 -12.644531 13.261719 -13.261719 13.660156 -13.769531 C 14.0625 -14.277344 14.496094 -14.535156 15.007812 -14.570312 C 15.222656 -14.570312 15.371094 -14.496094 15.476562 -14.351562 C 15.585938 -14.207031 15.660156 -14.023438 15.695312 -13.808594 C 15.734375 -13.589844 15.769531 -13.335938 15.769531 -13.117188 C 15.769531 -12.863281 15.734375 -12.644531 15.734375 -12.5 C 15.625 -11.554688 15.515625 -10.828125 15.441406 -10.246094 C 15.371094 -9.664062 15.261719 -9.121094 15.152344 -8.539062 C 15.042969 -7.957031 14.933594 -7.304688 14.789062 -6.578125 C 14.640625 -5.8125 14.425781 -4.796875 14.207031 -3.5625 C 14.0625 -2.835938 14.097656 -2.253906 14.242188 -1.816406 C 14.386719 -1.34375 14.605469 -0.980469 14.898438 -0.691406 C 15.1875 -0.398438 15.515625 -0.183594 15.878906 -0.0742188 C 16.242188 0.0742188 16.605469 0.109375 16.929688 0.109375 Z M 16.929688 0.109375 "/></g></g></g><g fill="#000000" fill-opacity="1"><g transform="translate(235.198847, 266.856592)"><g><path d="M 6.46875 -0.0351562 C 7.484375 -0.0742188 8.464844 -0.398438 9.445312 -0.980469 C 10.429688 -1.5625 11.335938 -2.253906 12.136719 -3.050781 C 12.933594 -3.851562 13.660156 -4.613281 14.277344 -5.414062 C 14.859375 -6.214844 15.332031 -6.832031 15.625 -7.265625 L 14.789062 -7.59375 C 14.535156 -7.195312 14.097656 -6.683594 13.480469 -6.03125 C 12.863281 -5.378906 12.171875 -4.722656 11.410156 -4.070312 C 10.644531 -3.414062 9.847656 -2.90625 9.046875 -2.46875 C 8.210938 -2.035156 7.484375 -1.816406 6.867188 -1.890625 C 6.140625 -1.925781 5.59375 -2.070312 5.230469 -2.363281 C 4.832031 -2.652344 4.542969 -2.980469 4.359375 -3.34375 C 4.140625 -3.707031 4.03125 -4.070312 3.996094 -4.503906 C 3.960938 -4.941406 3.960938 -5.304688 3.960938 -5.667969 C 3.960938 -6.46875 4.105469 -7.339844 4.359375 -8.355469 C 4.578125 -9.375 4.941406 -10.320312 5.378906 -11.226562 C 5.8125 -12.097656 6.320312 -12.863281 6.902344 -13.480469 C 7.484375 -14.0625 8.101562 -14.386719 8.828125 -14.386719 C 9.265625 -14.386719 9.59375 -14.207031 9.773438 -13.914062 C 9.917969 -13.589844 10.027344 -13.261719 10.027344 -12.898438 C 10.027344 -12.171875 9.847656 -11.445312 9.484375 -10.644531 C 9.121094 -9.847656 8.757812 -9.191406 8.355469 -8.609375 L 9.738281 -8.140625 C 10.101562 -8.355469 10.5 -8.574219 10.898438 -8.828125 C 11.300781 -9.046875 11.664062 -9.335938 11.988281 -9.699219 C 12.316406 -10.027344 12.609375 -10.429688 12.824219 -10.863281 C 13.042969 -11.300781 13.1875 -11.84375 13.261719 -12.425781 C 13.296875 -12.972656 13.1875 -13.480469 12.933594 -13.988281 C 12.679688 -14.460938 12.316406 -14.898438 11.882812 -15.261719 C 11.445312 -15.625 10.9375 -15.878906 10.355469 -16.097656 C 9.773438 -16.3125 9.230469 -16.421875 8.648438 -16.421875 C 7.847656 -16.421875 7.011719 -16.3125 6.066406 -16.097656 C 5.125 -15.878906 4.214844 -15.476562 3.378906 -14.824219 C 2.507812 -14.171875 1.78125 -13.1875 1.164062 -11.953125 C 0.507812 -10.683594 0.144531 -9.011719 0 -6.902344 C -0.109375 -5.667969 0.0351562 -4.578125 0.4375 -3.707031 C 0.800781 -2.835938 1.308594 -2.105469 1.960938 -1.5625 C 2.617188 -0.980469 3.34375 -0.582031 4.140625 -0.328125 C 4.941406 -0.0742188 5.703125 0.0351562 6.46875 -0.0351562 Z M 6.46875 -0.0351562 "/></g></g></g><g fill="#000000" fill-opacity="1"><g transform="translate(253.620173, 266.856592)"><g><path d="M 5.085938 0 C 5.8125 -0.0351562 6.613281 -0.328125 7.449219 -0.910156 C 8.285156 -1.453125 9.082031 -2.144531 9.882812 -2.980469 C 10.644531 -3.777344 11.371094 -4.6875 12.027344 -5.667969 C 12.679688 -6.613281 13.1875 -7.558594 13.550781 -8.464844 L 12.753906 -9.15625 C 12.425781 -8.464844 11.953125 -7.703125 11.300781 -6.832031 C 10.644531 -5.957031 9.957031 -5.125 9.230469 -4.359375 C 8.503906 -3.597656 7.777344 -2.980469 7.046875 -2.46875 C 6.320312 -1.960938 5.742188 -1.742188 5.304688 -1.816406 C 4.941406 -1.851562 4.613281 -2.035156 4.25 -2.398438 C 3.886719 -2.761719 3.707031 -3.160156 3.707031 -3.667969 C 3.667969 -4.105469 3.707031 -4.613281 3.777344 -5.125 C 3.851562 -5.632812 3.996094 -6.320312 4.179688 -7.265625 C 5.269531 -7.738281 6.320312 -8.503906 7.304688 -9.519531 C 8.246094 -10.535156 9.121094 -11.664062 9.882812 -12.898438 C 10.644531 -14.097656 11.300781 -15.296875 11.808594 -16.496094 C 12.316406 -17.660156 12.644531 -18.675781 12.863281 -19.476562 C 13.082031 -20.492188 13.226562 -21.363281 13.226562 -22.089844 C 13.226562 -22.816406 13.117188 -23.433594 12.898438 -23.90625 C 12.679688 -24.378906 12.390625 -24.742188 12.027344 -24.996094 C 11.625 -25.253906 11.191406 -25.433594 10.683594 -25.507812 C 9.664062 -25.652344 8.757812 -25.46875 7.882812 -24.960938 C 7.011719 -24.453125 6.175781 -23.691406 5.449219 -22.746094 C 4.6875 -21.765625 3.996094 -20.601562 3.414062 -19.292969 C 2.796875 -17.984375 2.253906 -16.566406 1.816406 -15.113281 C 1.34375 -13.625 0.945312 -12.097656 0.652344 -10.574219 C 0.363281 -9.011719 0.144531 -7.519531 0.0351562 -6.105469 C -0.109375 -4.867188 0 -3.886719 0.289062 -3.089844 C 0.582031 -2.289062 1.015625 -1.636719 1.527344 -1.164062 C 2.035156 -0.691406 2.578125 -0.363281 3.234375 -0.183594 C 3.886719 0 4.503906 0.0742188 5.085938 0 Z M 10.5 -23.945312 C 10.71875 -23.945312 10.828125 -23.652344 10.828125 -23.070312 C 10.792969 -22.492188 10.644531 -21.691406 10.429688 -20.746094 C 10.210938 -19.800781 9.882812 -18.710938 9.484375 -17.550781 C 9.082031 -16.386719 8.609375 -15.222656 8.101562 -14.097656 C 7.558594 -12.933594 6.976562 -11.882812 6.359375 -10.9375 C 5.742188 -9.992188 5.125 -9.265625 4.46875 -8.757812 C 4.613281 -9.59375 4.867188 -10.535156 5.160156 -11.625 C 5.449219 -12.71875 5.742188 -13.808594 6.105469 -14.898438 C 6.429688 -15.988281 6.792969 -17.078125 7.195312 -18.167969 C 7.558594 -19.21875 7.957031 -20.164062 8.320312 -21 C 8.683594 -21.835938 9.082031 -22.527344 9.445312 -23.070312 C 9.808594 -23.582031 10.171875 -23.871094 10.5 -23.945312 Z M 10.5 -23.945312 "/></g></g></g><g fill="#000000" fill-opacity="1"><g transform="translate(269.679789, 266.856592)"><g><path d="M 6.503906 -0.835938 C 7.230469 -1.488281 7.738281 -2.070312 7.992188 -2.507812 C 8.246094 -2.941406 8.394531 -3.199219 8.394531 -3.234375 C 8.355469 -2.796875 8.464844 -2.363281 8.683594 -1.960938 C 8.902344 -1.5625 9.15625 -1.199219 9.519531 -0.910156 C 9.847656 -0.617188 10.210938 -0.363281 10.644531 -0.21875 C 11.082031 -0.0351562 11.480469 0.0351562 11.917969 0 C 12.679688 0 13.40625 -0.328125 14.097656 -0.980469 C 14.789062 -1.636719 15.40625 -2.363281 15.949219 -3.234375 C 16.460938 -4.070312 16.929688 -4.90625 17.292969 -5.742188 C 17.660156 -6.539062 17.875 -7.15625 18.023438 -7.558594 L 16.96875 -7.957031 C 16.824219 -7.59375 16.53125 -7.085938 16.167969 -6.359375 C 15.804688 -5.632812 15.40625 -4.941406 14.96875 -4.214844 C 14.535156 -3.488281 14.0625 -2.871094 13.625 -2.363281 C 13.1875 -1.816406 12.824219 -1.5625 12.535156 -1.5625 C 12.316406 -1.5625 12.136719 -1.636719 12.027344 -1.816406 C 11.917969 -2 11.84375 -2.214844 11.808594 -2.433594 C 11.773438 -2.652344 11.773438 -2.90625 11.773438 -3.160156 C 11.773438 -3.414062 11.808594 -3.632812 11.84375 -3.777344 C 11.953125 -4.652344 12.136719 -5.632812 12.390625 -6.722656 C 12.644531 -7.8125 12.898438 -8.828125 13.1875 -9.847656 C 13.480469 -10.863281 13.734375 -11.773438 13.988281 -12.570312 C 14.207031 -13.371094 14.386719 -13.988281 14.535156 -14.425781 C 14.535156 -14.496094 14.460938 -14.570312 14.277344 -14.640625 C 14.097656 -14.714844 13.878906 -14.789062 13.625 -14.859375 C 13.335938 -14.898438 13.042969 -14.898438 12.71875 -14.898438 C 12.390625 -14.859375 12.097656 -14.75 11.808594 -14.605469 C 11.808594 -14.605469 11.773438 -14.679688 11.699219 -14.859375 C 11.589844 -15.007812 11.445312 -15.1875 11.226562 -15.40625 C 11.007812 -15.625 10.71875 -15.804688 10.390625 -16.023438 C 10.027344 -16.203125 9.664062 -16.3125 9.230469 -16.386719 C 8.320312 -16.460938 7.375 -16.351562 6.359375 -16.058594 C 5.339844 -15.734375 4.359375 -15.152344 3.488281 -14.316406 C 2.578125 -13.480469 1.816406 -12.351562 1.164062 -10.898438 C 0.507812 -9.445312 0.144531 -7.667969 0.0351562 -5.523438 C -0.0742188 -3.996094 0.109375 -2.796875 0.617188 -1.960938 C 1.125 -1.125 1.707031 -0.546875 2.433594 -0.253906 C 3.160156 0.0351562 3.886719 0.144531 4.652344 0 C 5.414062 -0.144531 6.03125 -0.398438 6.503906 -0.835938 Z M 6.320312 -2.035156 C 5.886719 -1.742188 5.523438 -1.636719 5.230469 -1.78125 C 4.90625 -1.925781 4.652344 -2.179688 4.433594 -2.542969 C 4.214844 -2.90625 4.070312 -3.34375 3.996094 -3.886719 C 3.925781 -4.394531 3.886719 -4.941406 3.960938 -5.449219 C 4.03125 -6.320312 4.214844 -7.265625 4.46875 -8.355469 C 4.722656 -9.410156 5.085938 -10.429688 5.523438 -11.371094 C 5.957031 -12.316406 6.46875 -13.152344 7.085938 -13.84375 C 7.703125 -14.496094 8.429688 -14.859375 9.230469 -14.933594 C 9.519531 -14.933594 9.738281 -14.898438 9.957031 -14.824219 C 10.171875 -14.75 10.320312 -14.640625 10.464844 -14.535156 C 10.609375 -14.386719 10.71875 -14.277344 10.792969 -14.132812 C 10.863281 -13.988281 10.898438 -13.878906 10.972656 -13.808594 C 10.644531 -12.972656 10.355469 -12.027344 10.136719 -11.007812 C 9.882812 -9.992188 9.59375 -8.9375 9.300781 -7.882812 C 8.972656 -6.792969 8.574219 -5.777344 8.140625 -4.757812 C 7.667969 -3.742188 7.046875 -2.835938 6.320312 -2.035156 Z M 6.320312 -2.035156 "/></g></g></g><g fill="#000000" fill-opacity="1"><g transform="translate(290.353825, 266.856592)"><g><path d="M 5.59375 -14.386719 L 6.105469 -16.242188 C 6.105469 -16.351562 5.921875 -16.460938 5.558594 -16.566406 C 5.195312 -16.675781 4.757812 -16.75 4.25 -16.75 C 3.742188 -16.75 3.269531 -16.675781 2.835938 -16.53125 C 2.363281 -16.386719 2.070312 -16.167969 1.925781 -15.839844 L 1.925781 -15.804688 L 1.890625 -15.804688 C 1.234375 -14.0625 0.761719 -12.351562 0.4375 -10.683594 C 0.109375 -8.972656 -0.0351562 -7.046875 0 -4.90625 C 0 -4.324219 0.0742188 -3.742188 0.289062 -3.160156 C 0.507812 -2.578125 0.800781 -2.035156 1.164062 -1.5625 C 1.527344 -1.089844 2 -0.691406 2.578125 -0.398438 C 3.125 -0.109375 3.742188 0.0351562 4.46875 0 C 4.941406 0 5.378906 -0.109375 5.8125 -0.328125 C 6.214844 -0.546875 6.578125 -0.800781 6.902344 -1.125 C 7.230469 -1.417969 7.519531 -1.742188 7.738281 -2.105469 C 7.957031 -2.46875 8.175781 -2.761719 8.320312 -3.050781 C 8.320312 -2.835938 8.320312 -2.542969 8.355469 -2.214844 C 8.355469 -1.851562 8.429688 -1.527344 8.574219 -1.199219 C 8.71875 -0.871094 8.9375 -0.582031 9.230469 -0.363281 C 9.519531 -0.144531 9.992188 0 10.574219 0 C 11.261719 0.0351562 11.988281 -0.253906 12.71875 -0.871094 C 13.445312 -1.453125 14.132812 -2.179688 14.789062 -3.015625 C 15.40625 -3.851562 15.949219 -4.6875 16.386719 -5.558594 C 16.824219 -6.394531 17.148438 -7.046875 17.292969 -7.558594 L 16.421875 -7.8125 C 16.203125 -7.375 15.949219 -6.867188 15.660156 -6.285156 C 15.332031 -5.667969 14.96875 -5.085938 14.605469 -4.503906 C 14.242188 -3.925781 13.84375 -3.453125 13.445312 -3.050781 C 13.007812 -2.617188 12.644531 -2.398438 12.28125 -2.398438 C 11.953125 -2.398438 11.773438 -2.652344 11.734375 -3.089844 C 11.664062 -3.523438 11.699219 -3.996094 11.773438 -4.542969 C 11.84375 -5.050781 11.917969 -5.59375 12.0625 -6.105469 C 12.207031 -6.613281 12.28125 -7.011719 12.351562 -7.230469 L 14.570312 -15.042969 L 14.859375 -16.058594 C 14.859375 -16.167969 14.714844 -16.277344 14.351562 -16.421875 C 13.988281 -16.53125 13.589844 -16.605469 13.152344 -16.605469 C 12.679688 -16.605469 12.246094 -16.566406 11.808594 -16.460938 C 11.371094 -16.3125 11.082031 -16.097656 10.9375 -15.769531 C 10.644531 -14.75 10.429688 -13.84375 10.210938 -13.042969 C 9.992188 -12.246094 9.808594 -11.480469 9.628906 -10.828125 C 9.445312 -10.136719 9.265625 -9.484375 9.121094 -8.902344 C 8.9375 -8.320312 8.757812 -7.738281 8.574219 -7.15625 C 8.210938 -6.066406 7.847656 -5.160156 7.558594 -4.46875 C 7.265625 -3.742188 6.976562 -3.199219 6.683594 -2.761719 C 6.394531 -2.324219 6.105469 -2.035156 5.8125 -1.890625 C 5.523438 -1.742188 5.269531 -1.671875 4.976562 -1.671875 C 4.359375 -1.671875 3.996094 -1.925781 3.851562 -2.507812 C 3.707031 -3.089844 3.667969 -3.925781 3.816406 -5.015625 C 3.996094 -6.613281 4.214844 -8.175781 4.503906 -9.738281 C 4.796875 -11.261719 5.160156 -12.824219 5.59375 -14.386719 Z M 5.59375 -14.386719 "/></g></g></g><g fill="#000000" fill-opacity="1"><g transform="translate(310.446522, 266.856592)"><g><path d="M 5.449219 -0.0351562 C 6.105469 -0.0351562 6.792969 -0.0742188 7.558594 -0.21875 C 8.285156 -0.363281 9.011719 -0.582031 9.664062 -0.910156 C 10.320312 -1.234375 10.898438 -1.671875 11.371094 -2.253906 C 11.808594 -2.835938 12.097656 -3.5625 12.171875 -4.46875 C 12.171875 -5.015625 12.097656 -5.523438 11.953125 -6.03125 C 11.773438 -6.539062 11.519531 -7.011719 11.191406 -7.519531 C 10.863281 -8.03125 10.5 -8.539062 10.066406 -9.046875 C 9.628906 -9.554688 9.15625 -10.101562 8.648438 -10.683594 C 9.011719 -11.046875 9.484375 -11.410156 9.992188 -11.84375 C 10.5 -12.246094 11.007812 -12.679688 11.519531 -13.152344 C 12.027344 -13.589844 12.460938 -14.0625 12.824219 -14.570312 C 13.1875 -15.078125 13.445312 -15.585938 13.589844 -16.167969 C 13.769531 -17.1875 13.734375 -17.984375 13.515625 -18.566406 C 13.261719 -19.148438 12.898438 -19.621094 12.460938 -19.910156 C 11.988281 -20.203125 11.480469 -20.417969 10.972656 -20.492188 C 10.429688 -20.566406 9.992188 -20.636719 9.628906 -20.636719 C 9.046875 -20.636719 8.394531 -20.566406 7.703125 -20.347656 C 6.976562 -20.128906 6.320312 -19.800781 5.742188 -19.328125 C 5.125 -18.820312 4.613281 -18.203125 4.214844 -17.402344 C 3.777344 -16.605469 3.597656 -15.660156 3.632812 -14.535156 C 3.632812 -14.132812 3.742188 -13.734375 3.960938 -13.296875 C 4.179688 -12.863281 4.433594 -12.425781 4.722656 -11.988281 C 5.015625 -11.554688 5.304688 -11.191406 5.59375 -10.828125 C 5.886719 -10.464844 6.105469 -10.136719 6.285156 -9.882812 C 6.285156 -9.957031 5.777344 -9.375 4.796875 -8.101562 L 5.269531 -7.558594 L 6.902344 -9.046875 C 7.410156 -8.246094 7.882812 -7.484375 8.285156 -6.722656 C 8.683594 -5.957031 8.867188 -5.160156 8.867188 -4.289062 C 8.867188 -3.851562 8.757812 -3.488281 8.539062 -3.125 C 8.320312 -2.761719 8.03125 -2.433594 7.703125 -2.179688 C 7.375 -1.890625 7.011719 -1.671875 6.648438 -1.527344 C 6.285156 -1.378906 5.921875 -1.308594 5.558594 -1.378906 C 4.832031 -1.453125 4.324219 -1.742188 3.960938 -2.253906 C 3.597656 -2.761719 3.378906 -3.378906 3.304688 -4.105469 C 3.234375 -4.796875 3.269531 -5.488281 3.414062 -6.214844 C 3.5625 -6.941406 3.777344 -7.519531 4.070312 -7.992188 C 4.140625 -8.140625 4.070312 -8.394531 3.851562 -8.71875 C 3.632812 -9.046875 3.34375 -9.335938 3.015625 -9.628906 C 2.6875 -9.917969 2.363281 -10.101562 2.035156 -10.246094 C 1.671875 -10.390625 1.417969 -10.355469 1.273438 -10.136719 C 1.054688 -9.847656 0.910156 -9.628906 0.800781 -9.410156 C 0.691406 -9.191406 0.582031 -9.011719 0.472656 -8.792969 C 0.0351562 -7.847656 -0.183594 -6.832031 -0.21875 -5.8125 C -0.289062 -4.796875 -0.109375 -3.851562 0.253906 -2.980469 C 0.617188 -2.105469 1.199219 -1.378906 2.070312 -0.835938 C 2.90625 -0.253906 4.03125 0 5.449219 -0.0351562 Z M 9.554688 -19.074219 C 9.917969 -19.074219 10.171875 -18.855469 10.390625 -18.492188 C 10.574219 -18.128906 10.683594 -17.765625 10.683594 -17.441406 C 10.683594 -16.929688 10.574219 -16.460938 10.355469 -15.949219 C 10.136719 -15.441406 9.917969 -14.933594 9.628906 -14.460938 C 9.335938 -13.953125 9.011719 -13.480469 8.683594 -13.042969 C 8.320312 -12.570312 8.03125 -12.171875 7.777344 -11.808594 C 7.777344 -11.808594 7.738281 -11.882812 7.628906 -12.027344 C 7.519531 -12.171875 7.410156 -12.390625 7.265625 -12.679688 C 7.121094 -12.933594 6.976562 -13.226562 6.832031 -13.589844 C 6.683594 -13.914062 6.578125 -14.277344 6.578125 -14.640625 C 6.503906 -15.007812 6.578125 -15.476562 6.757812 -15.988281 C 6.941406 -16.496094 7.195312 -16.96875 7.484375 -17.441406 C 7.777344 -17.875 8.101562 -18.277344 8.464844 -18.601562 C 8.828125 -18.894531 9.191406 -19.074219 9.554688 -19.074219 Z M 9.554688 -19.074219 "/></g></g></g><g fill="#000000" fill-opacity="1"><g transform="translate(327.523501, 266.856592)"><g><path d="M 6.976562 0 C 8.285156 0.0351562 9.484375 -0.253906 10.574219 -0.871094 C 11.664062 -1.453125 12.644531 -2.179688 13.480469 -3.050781 C 14.316406 -3.925781 15.007812 -4.796875 15.585938 -5.703125 C 16.132812 -6.578125 16.496094 -7.339844 16.714844 -7.921875 L 15.804688 -8.101562 C 15.550781 -7.59375 15.152344 -6.941406 14.605469 -6.140625 C 14.023438 -5.339844 13.371094 -4.542969 12.609375 -3.816406 C 11.84375 -3.089844 11.007812 -2.46875 10.136719 -1.960938 C 9.265625 -1.453125 8.394531 -1.234375 7.519531 -1.34375 C 6.722656 -1.378906 6.105469 -1.597656 5.632812 -2 C 5.160156 -2.398438 4.796875 -2.871094 4.542969 -3.414062 C 4.289062 -3.960938 4.140625 -4.503906 4.105469 -5.085938 C 4.03125 -5.667969 4.070312 -6.140625 4.140625 -6.578125 C 4.25 -6.539062 4.359375 -6.503906 4.433594 -6.46875 C 4.503906 -6.429688 4.613281 -6.429688 4.757812 -6.429688 C 7.085938 -5.921875 9.011719 -6.066406 10.5 -6.832031 C 11.988281 -7.59375 13.042969 -8.867188 13.699219 -10.683594 C 13.988281 -11.554688 14.097656 -12.351562 13.988281 -13.007812 C 13.878906 -13.660156 13.660156 -14.207031 13.296875 -14.640625 C 12.933594 -15.078125 12.535156 -15.40625 12.0625 -15.660156 C 11.554688 -15.878906 11.117188 -16.058594 10.71875 -16.203125 C 9.699219 -16.460938 8.574219 -16.53125 7.410156 -16.386719 C 6.25 -16.242188 5.125 -15.804688 4.105469 -15.152344 C 3.089844 -14.460938 2.179688 -13.480469 1.417969 -12.171875 C 0.652344 -10.863281 0.183594 -9.230469 0 -7.195312 C -0.0742188 -6.320312 0 -5.449219 0.289062 -4.613281 C 0.546875 -3.742188 0.980469 -2.980469 1.597656 -2.324219 C 2.179688 -1.636719 2.941406 -1.089844 3.851562 -0.652344 C 4.757812 -0.21875 5.8125 0 6.976562 0 Z M 5.050781 -7.410156 L 4.359375 -7.558594 C 4.433594 -8.175781 4.613281 -8.9375 4.90625 -9.882812 C 5.195312 -10.828125 5.558594 -11.699219 6.03125 -12.535156 C 6.46875 -13.335938 7.011719 -14.023438 7.667969 -14.570312 C 8.285156 -15.078125 8.972656 -15.261719 9.773438 -15.113281 C 10.066406 -15.042969 10.320312 -14.898438 10.5 -14.679688 C 10.644531 -14.460938 10.753906 -14.207031 10.828125 -13.914062 C 10.898438 -13.625 10.898438 -13.296875 10.898438 -13.007812 C 10.898438 -12.71875 10.863281 -12.425781 10.863281 -12.207031 C 10.71875 -11.445312 10.464844 -10.753906 10.171875 -10.101562 C 9.882812 -9.445312 9.484375 -8.867188 9.011719 -8.429688 C 8.539062 -7.992188 7.957031 -7.667969 7.304688 -7.449219 C 6.648438 -7.230469 5.886719 -7.230469 5.050781 -7.410156 Z M 5.050781 -7.410156 "/></g></g></g><g fill="#000000" fill-opacity="1"><g transform="translate(346.780523, 266.856592)"><g><path d="M 4.90625 -12.933594 L 5.59375 -16.132812 C 5.59375 -16.242188 5.449219 -16.351562 5.125 -16.496094 C 4.796875 -16.605469 4.433594 -16.675781 3.996094 -16.675781 C 3.5625 -16.675781 3.125 -16.640625 2.6875 -16.53125 C 2.253906 -16.421875 2 -16.203125 1.851562 -15.914062 C 1.308594 -13.84375 0.871094 -11.773438 0.582031 -9.738281 C 0.289062 -7.703125 0.0742188 -5.777344 0 -3.960938 C -0.0351562 -3.523438 0 -3.050781 0.144531 -2.578125 C 0.289062 -2.105469 0.472656 -1.671875 0.726562 -1.308594 C 0.980469 -0.910156 1.273438 -0.582031 1.597656 -0.363281 C 1.925781 -0.109375 2.289062 0 2.652344 0 C 2.6875 0 2.761719 -0.363281 2.90625 -1.089844 C 3.015625 -1.816406 3.199219 -2.761719 3.414062 -3.886719 C 3.632812 -4.976562 3.886719 -6.175781 4.214844 -7.484375 C 4.503906 -8.757812 4.867188 -9.957031 5.304688 -11.082031 C 5.742188 -12.171875 6.214844 -13.117188 6.757812 -13.84375 C 7.304688 -14.570312 7.921875 -14.96875 8.609375 -14.96875 C 8.902344 -14.96875 9.15625 -14.859375 9.375 -14.714844 C 9.59375 -14.535156 9.738281 -14.316406 9.882812 -14.0625 C 9.992188 -13.769531 10.066406 -13.480469 10.136719 -13.152344 C 10.171875 -12.824219 10.171875 -12.5 10.136719 -12.207031 C 9.992188 -11.261719 9.808594 -10.429688 9.664062 -9.699219 C 9.519531 -8.972656 9.335938 -8.285156 9.191406 -7.628906 C 9.011719 -6.976562 8.828125 -6.285156 8.683594 -5.59375 C 8.539062 -4.867188 8.394531 -4.070312 8.285156 -3.199219 C 8.175781 -2.46875 8.246094 -1.890625 8.464844 -1.453125 C 8.683594 -1.015625 9.011719 -0.652344 9.375 -0.398438 C 9.738281 -0.144531 10.101562 0.0351562 10.464844 0.109375 C 10.828125 0.21875 11.117188 0.253906 11.300781 0.253906 C 12.027344 0.289062 12.679688 0.0351562 13.335938 -0.546875 C 13.988281 -1.125 14.535156 -1.78125 15.042969 -2.578125 C 15.550781 -3.378906 15.949219 -4.179688 16.3125 -4.976562 C 16.675781 -5.777344 16.929688 -6.429688 17.148438 -6.902344 L 16.421875 -7.375 C 16.277344 -6.941406 16.023438 -6.394531 15.695312 -5.667969 C 15.371094 -4.941406 15.007812 -4.25 14.605469 -3.597656 C 14.171875 -2.941406 13.769531 -2.363281 13.335938 -1.890625 C 12.898438 -1.378906 12.535156 -1.164062 12.246094 -1.199219 C 11.953125 -1.199219 11.734375 -1.308594 11.589844 -1.453125 C 11.445312 -1.597656 11.371094 -1.816406 11.371094 -2.035156 C 11.335938 -2.253906 11.335938 -2.46875 11.410156 -2.726562 C 11.445312 -2.980469 11.480469 -3.234375 11.554688 -3.488281 C 11.699219 -4.289062 11.882812 -5.050781 12.0625 -5.703125 C 12.207031 -6.359375 12.390625 -6.976562 12.535156 -7.628906 C 12.679688 -8.285156 12.863281 -8.9375 13.007812 -9.664062 C 13.152344 -10.355469 13.296875 -11.15625 13.445312 -12.097656 C 13.515625 -12.753906 13.515625 -13.335938 13.371094 -13.84375 C 13.226562 -14.351562 13.042969 -14.789062 12.753906 -15.152344 C 12.460938 -15.515625 12.136719 -15.769531 11.773438 -15.988281 C 11.371094 -16.203125 10.972656 -16.3125 10.535156 -16.386719 C 9.519531 -16.460938 8.503906 -16.242188 7.484375 -15.734375 C 6.46875 -15.222656 5.632812 -14.277344 4.90625 -12.933594 Z M 4.90625 -12.933594 "/></g></g></g></svg>