<svg xmlns="http://www.w3.org/2000/svg" xmlns:xlink="http://www.w3.org/1999/xlink" width="500" zoomAndPan="magnify" viewBox="0 0 375 374.999991" height="500" preserveAspectRatio="xMidYMid meet" version="1.0"><defs><g/></defs><g fill="#ffffff" fill-opacity="1"><g transform="translate(122.766046, 212.794395)"><g><path d="M 85.804688 -61.1875 C 84.527344 -61.421875 83.363281 -61.1875 82.320312 -60.609375 C 80.347656 -59.679688 78.605469 -58.402344 76.863281 -57.007812 C 69.664062 -51.4375 63.511719 -45.050781 57.589844 -38.199219 C 56.078125 -36.339844 54.339844 -34.949219 52.25 -33.902344 C 45.28125 -30.1875 38.082031 -27.054688 30.882812 -23.800781 C 30.421875 -23.570312 29.957031 -23.570312 29.375 -23.570312 C 29.257812 -24.964844 30.304688 -26.007812 30.882812 -27.167969 C 33.207031 -31.8125 35.761719 -36.339844 37.15625 -41.335938 C 37.734375 -43.773438 38.082031 -46.09375 37.734375 -48.648438 C 37.386719 -51.203125 35.878906 -52.828125 33.671875 -53.757812 C 31.582031 -54.6875 29.375 -54.804688 27.167969 -54.453125 C 22.757812 -53.640625 18.460938 -52.25 14.746094 -49.695312 C 12.421875 -48.183594 10.332031 -46.441406 8.707031 -44.238281 C 7.199219 -42.261719 6.152344 -40.058594 5.804688 -37.503906 C 5.457031 -35.644531 5.921875 -34.019531 7.546875 -32.859375 C 9.40625 -31.582031 13.816406 -31.929688 15.675781 -33.554688 C 15.789062 -33.671875 15.90625 -33.789062 15.90625 -33.902344 C 15.90625 -34.136719 15.90625 -34.367188 15.789062 -34.601562 C 15.675781 -34.714844 15.210938 -34.832031 15.09375 -34.832031 C 13.816406 -33.324219 12.191406 -33.089844 10.332031 -33.207031 C 8.941406 -33.324219 8.011719 -34.136719 7.664062 -35.414062 C 7.429688 -36.339844 7.429688 -37.269531 7.664062 -38.199219 C 8.359375 -40.636719 9.40625 -42.84375 11.03125 -44.703125 C 15.789062 -50.042969 21.945312 -52.710938 28.910156 -53.527344 C 32.972656 -53.988281 35.644531 -51.320312 35.878906 -47.253906 C 35.992188 -44.585938 35.414062 -42.148438 34.484375 -39.707031 C 32.625 -34.136719 29.722656 -29.027344 26.9375 -23.917969 C 25.777344 -21.945312 24.265625 -20.550781 22.175781 -19.621094 C 17.53125 -17.648438 13.234375 -15.210938 8.941406 -12.421875 C 6.734375 -11.03125 4.761719 -9.519531 2.902344 -7.546875 C 1.625 -6.269531 0.695312 -4.875 0.230469 -3.019531 C -0.464844 -0.464844 0.8125 1.277344 3.484375 1.507812 C 5.339844 1.625 7.199219 1.046875 8.824219 0 C 10.683594 -1.046875 12.191406 -2.4375 13.585938 -3.832031 C 18.113281 -8.128906 21.828125 -12.886719 25.3125 -17.996094 C 26.472656 -19.738281 27.867188 -21.015625 29.839844 -21.828125 C 36.691406 -25.078125 43.65625 -28.332031 50.507812 -31.464844 C 50.855469 -31.699219 51.320312 -31.699219 51.667969 -31.234375 C 51.203125 -30.652344 50.738281 -29.957031 50.273438 -29.257812 C 46.09375 -24.035156 42.378906 -18.578125 39.011719 -12.773438 C 35.414062 -6.386719 32.277344 0.230469 30.421875 7.429688 C 29.957031 9.171875 29.722656 10.914062 29.839844 12.65625 C 30.070312 15.09375 31.929688 16.601562 34.367188 16.371094 C 35.992188 16.140625 37.503906 15.558594 39.011719 14.746094 C 41.683594 13.351562 44.121094 11.609375 46.328125 9.636719 C 49.460938 6.851562 52.710938 4.0625 55.730469 1.046875 C 62.117188 -5.574219 68.503906 -12.308594 74.890625 -19.042969 C 76.515625 -20.667969 78.023438 -22.410156 79.535156 -24.148438 C 79.765625 -24.5 79.882812 -24.847656 80 -25.3125 C 80.113281 -25.3125 80 -25.542969 79.882812 -25.542969 C 79.765625 -25.660156 79.648438 -25.777344 79.535156 -25.777344 C 78.488281 -25.660156 77.90625 -24.730469 77.328125 -24.035156 C 72.21875 -18.691406 67.34375 -13.351562 62.234375 -7.894531 C 57.007812 -2.4375 51.785156 3.136719 45.980469 8.128906 C 43.539062 10.101562 41.101562 12.074219 38.316406 13.585938 C 37.15625 14.28125 35.992188 14.863281 34.601562 15.09375 C 33.207031 15.328125 32.160156 14.628906 31.929688 13.234375 C 31.582031 11.726562 31.8125 10.21875 32.160156 8.824219 C 32.859375 5.921875 33.671875 3.019531 34.832031 0.230469 C 39.941406 -12.421875 47.605469 -23.453125 56.3125 -33.902344 C 57.125 -34.949219 58.285156 -35.644531 59.445312 -36.339844 C 62.8125 -38.199219 66.066406 -40.171875 69.316406 -42.148438 C 73.03125 -44.351562 76.632812 -46.90625 79.882812 -49.695312 C 82.203125 -51.667969 84.292969 -53.875 85.917969 -56.429688 C 86.5 -57.355469 86.964844 -58.285156 87.195312 -59.445312 C 87.3125 -60.144531 86.617188 -61.074219 85.804688 -61.1875 Z M 84.992188 -59.097656 C 84.757812 -58.285156 84.410156 -57.472656 83.945312 -56.894531 C 82.4375 -54.453125 80.460938 -52.363281 78.371094 -50.507812 C 73.726562 -46.558594 68.734375 -43.191406 63.625 -40.289062 C 63.164062 -39.941406 62.582031 -39.941406 62 -39.824219 C 62 -39.359375 61.652344 -39.128906 61.1875 -38.894531 L 61.304688 -39.011719 C 61.1875 -39.476562 61.421875 -39.824219 62 -39.824219 C 62 -40.636719 62.464844 -41.101562 62.929688 -41.566406 C 68.039062 -47.140625 73.265625 -52.480469 79.300781 -57.007812 C 80.8125 -58.167969 82.320312 -59.332031 84.0625 -60.027344 C 84.292969 -60.027344 84.640625 -59.910156 84.757812 -59.796875 C 84.992188 -59.5625 85.105469 -59.214844 84.992188 -59.097656 Z M 29.257812 -23.453125 C 29.257812 -23.335938 29.257812 -23.335938 29.257812 -23.222656 L 29.144531 -23.222656 C 29.027344 -23.222656 29.027344 -23.335938 29.257812 -23.453125 Z M 22.523438 -17.183594 C 18.808594 -11.84375 14.863281 -6.964844 10.101562 -2.671875 C 8.707031 -1.507812 7.316406 -0.464844 5.574219 0.117188 C 4.527344 0.347656 3.484375 0.582031 2.554688 -0.230469 C 1.625 -1.160156 1.859375 -2.207031 2.207031 -3.25 C 2.671875 -4.761719 3.484375 -6.039062 4.644531 -7.082031 C 5.921875 -8.242188 7.199219 -9.40625 8.59375 -10.449219 C 12.886719 -13.585938 17.53125 -16.023438 22.757812 -18.578125 C 22.640625 -17.648438 22.640625 -17.417969 22.523438 -17.183594 Z M 22.523438 -17.183594 "/></g></g></g><g fill="#ffffff" fill-opacity="1"><g transform="translate(197.184624, 212.794395)"><g><path d="M 30.070312 -0.464844 C 35.179688 -1.507812 39.941406 -3.714844 44.46875 -6.152344 C 52.363281 -10.449219 59.679688 -15.675781 66.644531 -21.246094 C 68.96875 -23.105469 71.175781 -25.3125 73.378906 -27.285156 C 71.175781 -27.75 70.128906 -26.355469 68.96875 -25.3125 C 60.839844 -17.765625 51.785156 -11.496094 42.03125 -6.269531 C 37.851562 -3.949219 33.4375 -2.207031 28.792969 -1.160156 C 25.542969 -0.582031 22.523438 -1.160156 19.621094 -2.671875 C 17.648438 -3.597656 16.253906 -5.339844 15.675781 -7.546875 C 15.09375 -9.867188 14.976562 -12.074219 15.441406 -14.398438 C 17.648438 -25.660156 23.570312 -34.714844 31.117188 -43.074219 C 31.8125 -43.773438 32.511719 -44.003906 33.671875 -43.65625 C 36.109375 -42.960938 38.664062 -42.378906 40.984375 -41.449219 C 46.792969 -39.476562 52.480469 -39.824219 58.285156 -41.566406 C 61.074219 -42.496094 63.625 -43.539062 65.832031 -45.398438 C 69.664062 -48.648438 69.199219 -53.292969 64.671875 -55.730469 C 63.046875 -56.660156 61.1875 -57.242188 59.332031 -57.355469 C 52.710938 -57.9375 46.558594 -56.429688 40.984375 -52.945312 C 38.082031 -51.203125 35.296875 -49.230469 32.742188 -46.90625 C 31.8125 -45.980469 30.769531 -45.746094 29.375 -46.210938 C 27.515625 -46.90625 25.542969 -47.371094 23.570312 -47.953125 C 19.042969 -49.34375 14.511719 -49.578125 9.867188 -49.113281 C 5.6875 -48.648438 2.320312 -46.675781 0.582031 -42.726562 C -0.929688 -39.359375 0.582031 -35.878906 3.714844 -34.601562 C 4.296875 -34.367188 4.875 -34.367188 5.226562 -34.832031 C 0.929688 -37.734375 0.582031 -42.03125 4.410156 -45.515625 C 6.269531 -47.140625 8.476562 -48.070312 11.03125 -48.300781 C 17.53125 -48.996094 23.6875 -47.253906 29.605469 -44.816406 C 29.722656 -44.816406 29.722656 -44.585938 29.722656 -44.46875 C 29.492188 -43.308594 28.5625 -42.726562 27.867188 -41.914062 C 24.382812 -37.96875 21.480469 -33.671875 18.925781 -29.257812 C 16.371094 -24.613281 14.398438 -19.621094 13.46875 -14.398438 C 13.121094 -12.191406 13.121094 -9.984375 13.699219 -7.894531 C 14.398438 -4.875 16.140625 -2.785156 18.925781 -1.507812 C 22.523438 0 26.242188 0.347656 30.070312 -0.464844 Z M 50.160156 -40.984375 C 48.996094 -40.871094 47.835938 -40.871094 46.90625 -41.101562 C 42.726562 -42.148438 38.78125 -43.308594 34.714844 -44.46875 C 33.902344 -44.703125 33.671875 -45.515625 34.25 -46.09375 C 40.636719 -51.898438 47.605469 -56.3125 56.542969 -56.542969 C 58.519531 -56.429688 60.375 -56.429688 62.234375 -55.617188 C 63.046875 -55.152344 63.976562 -54.804688 64.671875 -54.222656 C 67.226562 -52.015625 67.34375 -49.113281 65.136719 -46.675781 C 63.976562 -45.515625 62.582031 -44.585938 61.074219 -43.886719 C 57.589844 -42.261719 53.875 -41.449219 50.160156 -40.984375 Z M 50.160156 -40.984375 "/></g></g></g><g fill="#ffffff" fill-opacity="1"><g transform="translate(44.549736, 266.725089)"><g><path d="M 15.003906 -7.957031 C 15.875 -7.992188 16.675781 -8.066406 17.402344 -8.136719 C 18.128906 -8.210938 18.929688 -8.320312 19.800781 -8.464844 L 19.980469 -10.28125 C 19.109375 -10.171875 18.347656 -10.0625 17.691406 -9.992188 C 17.003906 -9.882812 16.238281 -9.808594 15.402344 -9.738281 C 15.621094 -10.753906 15.914062 -11.988281 16.277344 -13.441406 C 16.640625 -14.859375 17.003906 -16.3125 17.367188 -17.800781 C 17.730469 -19.292969 18.09375 -20.746094 18.457031 -22.160156 C 18.820312 -23.578125 19.144531 -24.8125 19.4375 -25.867188 L 15.695312 -25.578125 C 15.402344 -24.523438 15.078125 -23.289062 14.714844 -21.90625 C 14.351562 -20.488281 13.949219 -19.035156 13.585938 -17.546875 C 13.222656 -16.058594 12.859375 -14.605469 12.496094 -13.1875 C 12.132812 -11.769531 11.808594 -10.535156 11.589844 -9.519531 C 10.609375 -9.375 9.664062 -9.300781 8.753906 -9.265625 C 7.8125 -9.191406 6.867188 -9.191406 5.886719 -9.191406 C 6.101562 -10.207031 6.394531 -11.445312 6.722656 -12.859375 C 7.046875 -14.277344 7.375 -15.730469 7.738281 -17.21875 C 8.101562 -18.671875 8.429688 -20.125 8.792969 -21.542969 C 9.15625 -22.925781 9.480469 -24.160156 9.773438 -25.214844 L 5.996094 -25.320312 C 4.394531 -20.417969 3.050781 -15.441406 2 -10.390625 C 0.910156 -5.339844 0.144531 -0.4375 -0.328125 4.359375 C -0.363281 4.648438 -0.253906 4.90625 0 5.085938 C 0.21875 5.269531 0.507812 5.375 0.871094 5.449219 C 1.199219 5.523438 1.5625 5.558594 1.960938 5.523438 C 2.324219 5.484375 2.652344 5.375 2.941406 5.230469 C 2.980469 4.976562 3.050781 4.503906 3.195312 3.851562 L 3.667969 1.5625 C 3.816406 0.726562 3.996094 -0.183594 4.214844 -1.125 C 4.394531 -2.070312 4.578125 -2.941406 4.757812 -3.777344 C 4.90625 -4.613281 5.050781 -5.339844 5.195312 -5.996094 C 5.339844 -6.648438 5.414062 -7.085938 5.484375 -7.339844 C 6.429688 -7.375 7.375 -7.410156 8.320312 -7.484375 C 9.265625 -7.519531 10.207031 -7.59375 11.226562 -7.664062 C 11.152344 -7.300781 11.042969 -6.828125 10.933594 -6.210938 C 10.789062 -5.558594 10.679688 -4.867188 10.570312 -4.105469 C 10.425781 -3.304688 10.316406 -2.507812 10.207031 -1.671875 C 10.0625 -0.800781 9.953125 0 9.882812 0.800781 C 9.773438 1.597656 9.699219 2.289062 9.628906 2.941406 C 9.554688 3.597656 9.519531 4.070312 9.519531 4.433594 C 9.519531 4.941406 9.699219 5.269531 10.101562 5.414062 C 10.464844 5.558594 10.898438 5.632812 11.371094 5.632812 C 11.84375 5.632812 12.28125 5.558594 12.644531 5.414062 C 13.007812 5.269531 13.222656 5.160156 13.222656 5.011719 C 13.222656 4.648438 13.222656 4.140625 13.296875 3.453125 C 13.371094 2.796875 13.441406 2.035156 13.550781 1.164062 C 13.625 0.328125 13.734375 -0.546875 13.878906 -1.488281 C 14.023438 -2.398438 14.132812 -3.269531 14.277344 -4.140625 C 14.421875 -4.976562 14.53125 -5.738281 14.675781 -6.429688 C 14.785156 -7.085938 14.894531 -7.59375 15.003906 -7.957031 Z M 15.003906 -7.957031 "/></g></g></g><g fill="#ffffff" fill-opacity="1"><g transform="translate(67.473448, 266.725089)"><g><path d="M 6.503906 -0.835938 C 7.230469 -1.488281 7.738281 -2.070312 7.992188 -2.507812 C 8.246094 -2.941406 8.390625 -3.195312 8.390625 -3.234375 C 8.355469 -2.796875 8.464844 -2.363281 8.683594 -1.960938 C 8.902344 -1.5625 9.15625 -1.199219 9.519531 -0.910156 C 9.84375 -0.617188 10.207031 -0.363281 10.644531 -0.21875 C 11.082031 -0.0351562 11.480469 0.0351562 11.917969 0 C 12.679688 0 13.40625 -0.328125 14.097656 -0.980469 C 14.785156 -1.636719 15.402344 -2.363281 15.949219 -3.234375 C 16.457031 -4.070312 16.929688 -4.90625 17.292969 -5.738281 C 17.65625 -6.539062 17.875 -7.15625 18.019531 -7.554688 L 16.964844 -7.957031 C 16.820312 -7.59375 16.53125 -7.085938 16.167969 -6.359375 C 15.804688 -5.632812 15.402344 -4.941406 14.96875 -4.214844 C 14.53125 -3.488281 14.058594 -2.871094 13.625 -2.363281 C 13.1875 -1.816406 12.824219 -1.5625 12.535156 -1.5625 C 12.316406 -1.5625 12.132812 -1.636719 12.023438 -1.816406 C 11.917969 -2 11.84375 -2.214844 11.808594 -2.433594 C 11.769531 -2.652344 11.769531 -2.90625 11.769531 -3.160156 C 11.769531 -3.414062 11.808594 -3.632812 11.84375 -3.777344 C 11.953125 -4.648438 12.132812 -5.632812 12.386719 -6.722656 C 12.644531 -7.8125 12.898438 -8.828125 13.1875 -9.84375 C 13.476562 -10.863281 13.734375 -11.769531 13.988281 -12.570312 C 14.203125 -13.371094 14.386719 -13.988281 14.53125 -14.421875 C 14.53125 -14.496094 14.460938 -14.566406 14.277344 -14.640625 C 14.097656 -14.714844 13.878906 -14.785156 13.625 -14.859375 C 13.332031 -14.894531 13.042969 -14.894531 12.714844 -14.894531 C 12.386719 -14.859375 12.097656 -14.75 11.808594 -14.605469 C 11.808594 -14.605469 11.769531 -14.675781 11.699219 -14.859375 C 11.589844 -15.003906 11.445312 -15.1875 11.226562 -15.402344 C 11.007812 -15.621094 10.71875 -15.804688 10.390625 -16.023438 C 10.027344 -16.203125 9.664062 -16.3125 9.226562 -16.386719 C 8.320312 -16.457031 7.375 -16.347656 6.359375 -16.058594 C 5.339844 -15.730469 4.359375 -15.148438 3.488281 -14.3125 C 2.578125 -13.476562 1.816406 -12.351562 1.164062 -10.898438 C 0.507812 -9.445312 0.144531 -7.664062 0.0351562 -5.523438 C -0.0742188 -3.996094 0.109375 -2.796875 0.617188 -1.960938 C 1.125 -1.125 1.707031 -0.546875 2.433594 -0.253906 C 3.160156 0.0351562 3.886719 0.144531 4.648438 0 C 5.414062 -0.144531 6.03125 -0.398438 6.503906 -0.835938 Z M 6.320312 -2.035156 C 5.886719 -1.742188 5.523438 -1.636719 5.230469 -1.78125 C 4.90625 -1.925781 4.648438 -2.179688 4.433594 -2.542969 C 4.214844 -2.90625 4.070312 -3.34375 3.996094 -3.886719 C 3.921875 -4.394531 3.886719 -4.941406 3.960938 -5.449219 C 4.03125 -6.320312 4.214844 -7.265625 4.46875 -8.355469 C 4.722656 -9.410156 5.085938 -10.425781 5.523438 -11.371094 C 5.957031 -12.316406 6.464844 -13.152344 7.085938 -13.839844 C 7.703125 -14.496094 8.429688 -14.859375 9.226562 -14.929688 C 9.519531 -14.929688 9.738281 -14.894531 9.953125 -14.824219 C 10.171875 -14.75 10.316406 -14.640625 10.464844 -14.53125 C 10.609375 -14.386719 10.71875 -14.277344 10.789062 -14.132812 C 10.863281 -13.988281 10.898438 -13.878906 10.972656 -13.804688 C 10.644531 -12.96875 10.355469 -12.023438 10.136719 -11.007812 C 9.882812 -9.992188 9.589844 -8.9375 9.300781 -7.882812 C 8.972656 -6.792969 8.574219 -5.777344 8.136719 -4.757812 C 7.664062 -3.742188 7.046875 -2.832031 6.320312 -2.035156 Z M 6.320312 -2.035156 "/></g></g></g><g fill="#ffffff" fill-opacity="1"><g transform="translate(88.144814, 266.725089)"><g><path d="M 4.90625 -12.933594 L 5.59375 -16.128906 C 5.59375 -16.238281 5.449219 -16.347656 5.121094 -16.492188 C 4.796875 -16.601562 4.433594 -16.675781 3.996094 -16.675781 C 3.558594 -16.675781 3.125 -16.640625 2.6875 -16.53125 C 2.253906 -16.421875 2 -16.203125 1.851562 -15.914062 C 1.308594 -13.839844 0.871094 -11.769531 0.582031 -9.738281 C 0.289062 -7.703125 0.0742188 -5.777344 0 -3.960938 C -0.0351562 -3.523438 0 -3.050781 0.144531 -2.578125 C 0.289062 -2.105469 0.472656 -1.671875 0.726562 -1.308594 C 0.980469 -0.910156 1.273438 -0.582031 1.597656 -0.363281 C 1.925781 -0.109375 2.289062 0 2.652344 0 C 2.6875 0 2.761719 -0.363281 2.90625 -1.089844 C 3.015625 -1.816406 3.195312 -2.761719 3.414062 -3.886719 C 3.632812 -4.976562 3.886719 -6.175781 4.214844 -7.484375 C 4.503906 -8.753906 4.867188 -9.953125 5.304688 -11.082031 C 5.738281 -12.171875 6.210938 -13.113281 6.757812 -13.839844 C 7.300781 -14.566406 7.921875 -14.96875 8.609375 -14.96875 C 8.902344 -14.96875 9.15625 -14.859375 9.375 -14.714844 C 9.589844 -14.53125 9.738281 -14.3125 9.882812 -14.058594 C 9.992188 -13.769531 10.0625 -13.476562 10.136719 -13.152344 C 10.171875 -12.824219 10.171875 -12.496094 10.136719 -12.207031 C 9.992188 -11.261719 9.808594 -10.425781 9.664062 -9.699219 C 9.519531 -8.972656 9.335938 -8.285156 9.191406 -7.628906 C 9.011719 -6.976562 8.828125 -6.285156 8.683594 -5.59375 C 8.539062 -4.867188 8.390625 -4.070312 8.285156 -3.195312 C 8.175781 -2.46875 8.246094 -1.890625 8.464844 -1.453125 C 8.683594 -1.015625 9.011719 -0.652344 9.375 -0.398438 C 9.738281 -0.144531 10.101562 0.0351562 10.464844 0.109375 C 10.828125 0.21875 11.117188 0.253906 11.296875 0.253906 C 12.023438 0.289062 12.679688 0.0351562 13.332031 -0.546875 C 13.988281 -1.125 14.53125 -1.78125 15.039062 -2.578125 C 15.550781 -3.378906 15.949219 -4.179688 16.3125 -4.976562 C 16.675781 -5.777344 16.929688 -6.429688 17.148438 -6.902344 L 16.421875 -7.375 C 16.277344 -6.9375 16.023438 -6.394531 15.695312 -5.667969 C 15.367188 -4.941406 15.003906 -4.25 14.605469 -3.597656 C 14.167969 -2.941406 13.769531 -2.363281 13.332031 -1.890625 C 12.898438 -1.378906 12.535156 -1.164062 12.242188 -1.199219 C 11.953125 -1.199219 11.734375 -1.308594 11.589844 -1.453125 C 11.445312 -1.597656 11.371094 -1.816406 11.371094 -2.035156 C 11.335938 -2.253906 11.335938 -2.46875 11.40625 -2.726562 C 11.445312 -2.980469 11.480469 -3.234375 11.554688 -3.488281 C 11.699219 -4.285156 11.878906 -5.050781 12.0625 -5.703125 C 12.207031 -6.359375 12.386719 -6.976562 12.535156 -7.628906 C 12.679688 -8.285156 12.859375 -8.9375 13.007812 -9.664062 C 13.152344 -10.355469 13.296875 -11.152344 13.441406 -12.097656 C 13.515625 -12.75 13.515625 -13.332031 13.371094 -13.839844 C 13.222656 -14.351562 13.042969 -14.785156 12.75 -15.148438 C 12.460938 -15.511719 12.132812 -15.765625 11.769531 -15.984375 C 11.371094 -16.203125 10.972656 -16.3125 10.535156 -16.386719 C 9.519531 -16.457031 8.5 -16.238281 7.484375 -15.730469 C 6.464844 -15.222656 5.632812 -14.277344 4.90625 -12.933594 Z M 4.90625 -12.933594 "/></g></g></g><g fill="#ffffff" fill-opacity="1"><g transform="translate(107.798996, 266.725089)"><g><path d="M 4.90625 -12.933594 L 5.59375 -16.128906 C 5.59375 -16.238281 5.449219 -16.347656 5.121094 -16.492188 C 4.796875 -16.601562 4.433594 -16.675781 3.996094 -16.675781 C 3.558594 -16.675781 3.125 -16.640625 2.6875 -16.53125 C 2.253906 -16.421875 2 -16.203125 1.851562 -15.914062 C 1.308594 -13.839844 0.871094 -11.769531 0.582031 -9.738281 C 0.289062 -7.703125 0.0742188 -5.777344 0 -3.960938 C -0.0351562 -3.523438 0 -3.050781 0.144531 -2.578125 C 0.289062 -2.105469 0.472656 -1.671875 0.726562 -1.308594 C 0.980469 -0.910156 1.273438 -0.582031 1.597656 -0.363281 C 1.925781 -0.109375 2.289062 0 2.652344 0 C 2.6875 0 2.761719 -0.363281 2.90625 -1.089844 C 3.015625 -1.816406 3.195312 -2.761719 3.414062 -3.886719 C 3.632812 -4.976562 3.886719 -6.175781 4.214844 -7.484375 C 4.503906 -8.753906 4.867188 -9.953125 5.304688 -11.082031 C 5.738281 -12.171875 6.210938 -13.113281 6.757812 -13.839844 C 7.300781 -14.566406 7.921875 -14.96875 8.609375 -14.96875 C 8.902344 -14.96875 9.15625 -14.859375 9.375 -14.714844 C 9.589844 -14.53125 9.738281 -14.3125 9.882812 -14.058594 C 9.992188 -13.769531 10.0625 -13.476562 10.136719 -13.152344 C 10.171875 -12.824219 10.171875 -12.496094 10.136719 -12.207031 C 9.992188 -11.261719 9.808594 -10.425781 9.664062 -9.699219 C 9.519531 -8.972656 9.335938 -8.285156 9.191406 -7.628906 C 9.011719 -6.976562 8.828125 -6.285156 8.683594 -5.59375 C 8.539062 -4.867188 8.390625 -4.070312 8.285156 -3.195312 C 8.175781 -2.46875 8.246094 -1.890625 8.464844 -1.453125 C 8.683594 -1.015625 9.011719 -0.652344 9.375 -0.398438 C 9.738281 -0.144531 10.101562 0.0351562 10.464844 0.109375 C 10.828125 0.21875 11.117188 0.253906 11.296875 0.253906 C 12.023438 0.289062 12.679688 0.0351562 13.332031 -0.546875 C 13.988281 -1.125 14.53125 -1.78125 15.039062 -2.578125 C 15.550781 -3.378906 15.949219 -4.179688 16.3125 -4.976562 C 16.675781 -5.777344 16.929688 -6.429688 17.148438 -6.902344 L 16.421875 -7.375 C 16.277344 -6.9375 16.023438 -6.394531 15.695312 -5.667969 C 15.367188 -4.941406 15.003906 -4.25 14.605469 -3.597656 C 14.167969 -2.941406 13.769531 -2.363281 13.332031 -1.890625 C 12.898438 -1.378906 12.535156 -1.164062 12.242188 -1.199219 C 11.953125 -1.199219 11.734375 -1.308594 11.589844 -1.453125 C 11.445312 -1.597656 11.371094 -1.816406 11.371094 -2.035156 C 11.335938 -2.253906 11.335938 -2.46875 11.40625 -2.726562 C 11.445312 -2.980469 11.480469 -3.234375 11.554688 -3.488281 C 11.699219 -4.285156 11.878906 -5.050781 12.0625 -5.703125 C 12.207031 -6.359375 12.386719 -6.976562 12.535156 -7.628906 C 12.679688 -8.285156 12.859375 -8.9375 13.007812 -9.664062 C 13.152344 -10.355469 13.296875 -11.152344 13.441406 -12.097656 C 13.515625 -12.75 13.515625 -13.332031 13.371094 -13.839844 C 13.222656 -14.351562 13.042969 -14.785156 12.75 -15.148438 C 12.460938 -15.511719 12.132812 -15.765625 11.769531 -15.984375 C 11.371094 -16.203125 10.972656 -16.3125 10.535156 -16.386719 C 9.519531 -16.457031 8.5 -16.238281 7.484375 -15.730469 C 6.464844 -15.222656 5.632812 -14.277344 4.90625 -12.933594 Z M 4.90625 -12.933594 "/></g></g></g><g fill="#ffffff" fill-opacity="1"><g transform="translate(127.453175, 266.725089)"><g><path d="M 6.503906 -0.835938 C 7.230469 -1.488281 7.738281 -2.070312 7.992188 -2.507812 C 8.246094 -2.941406 8.390625 -3.195312 8.390625 -3.234375 C 8.355469 -2.796875 8.464844 -2.363281 8.683594 -1.960938 C 8.902344 -1.5625 9.15625 -1.199219 9.519531 -0.910156 C 9.84375 -0.617188 10.207031 -0.363281 10.644531 -0.21875 C 11.082031 -0.0351562 11.480469 0.0351562 11.917969 0 C 12.679688 0 13.40625 -0.328125 14.097656 -0.980469 C 14.785156 -1.636719 15.402344 -2.363281 15.949219 -3.234375 C 16.457031 -4.070312 16.929688 -4.90625 17.292969 -5.738281 C 17.65625 -6.539062 17.875 -7.15625 18.019531 -7.554688 L 16.964844 -7.957031 C 16.820312 -7.59375 16.53125 -7.085938 16.167969 -6.359375 C 15.804688 -5.632812 15.402344 -4.941406 14.96875 -4.214844 C 14.53125 -3.488281 14.058594 -2.871094 13.625 -2.363281 C 13.1875 -1.816406 12.824219 -1.5625 12.535156 -1.5625 C 12.316406 -1.5625 12.132812 -1.636719 12.023438 -1.816406 C 11.917969 -2 11.84375 -2.214844 11.808594 -2.433594 C 11.769531 -2.652344 11.769531 -2.90625 11.769531 -3.160156 C 11.769531 -3.414062 11.808594 -3.632812 11.84375 -3.777344 C 11.953125 -4.648438 12.132812 -5.632812 12.386719 -6.722656 C 12.644531 -7.8125 12.898438 -8.828125 13.1875 -9.84375 C 13.476562 -10.863281 13.734375 -11.769531 13.988281 -12.570312 C 14.203125 -13.371094 14.386719 -13.988281 14.53125 -14.421875 C 14.53125 -14.496094 14.460938 -14.566406 14.277344 -14.640625 C 14.097656 -14.714844 13.878906 -14.785156 13.625 -14.859375 C 13.332031 -14.894531 13.042969 -14.894531 12.714844 -14.894531 C 12.386719 -14.859375 12.097656 -14.75 11.808594 -14.605469 C 11.808594 -14.605469 11.769531 -14.675781 11.699219 -14.859375 C 11.589844 -15.003906 11.445312 -15.1875 11.226562 -15.402344 C 11.007812 -15.621094 10.71875 -15.804688 10.390625 -16.023438 C 10.027344 -16.203125 9.664062 -16.3125 9.226562 -16.386719 C 8.320312 -16.457031 7.375 -16.347656 6.359375 -16.058594 C 5.339844 -15.730469 4.359375 -15.148438 3.488281 -14.3125 C 2.578125 -13.476562 1.816406 -12.351562 1.164062 -10.898438 C 0.507812 -9.445312 0.144531 -7.664062 0.0351562 -5.523438 C -0.0742188 -3.996094 0.109375 -2.796875 0.617188 -1.960938 C 1.125 -1.125 1.707031 -0.546875 2.433594 -0.253906 C 3.160156 0.0351562 3.886719 0.144531 4.648438 0 C 5.414062 -0.144531 6.03125 -0.398438 6.503906 -0.835938 Z M 6.320312 -2.035156 C 5.886719 -1.742188 5.523438 -1.636719 5.230469 -1.78125 C 4.90625 -1.925781 4.648438 -2.179688 4.433594 -2.542969 C 4.214844 -2.90625 4.070312 -3.34375 3.996094 -3.886719 C 3.921875 -4.394531 3.886719 -4.941406 3.960938 -5.449219 C 4.03125 -6.320312 4.214844 -7.265625 4.46875 -8.355469 C 4.722656 -9.410156 5.085938 -10.425781 5.523438 -11.371094 C 5.957031 -12.316406 6.464844 -13.152344 7.085938 -13.839844 C 7.703125 -14.496094 8.429688 -14.859375 9.226562 -14.929688 C 9.519531 -14.929688 9.738281 -14.894531 9.953125 -14.824219 C 10.171875 -14.75 10.316406 -14.640625 10.464844 -14.53125 C 10.609375 -14.386719 10.71875 -14.277344 10.789062 -14.132812 C 10.863281 -13.988281 10.898438 -13.878906 10.972656 -13.804688 C 10.644531 -12.96875 10.355469 -12.023438 10.136719 -11.007812 C 9.882812 -9.992188 9.589844 -8.9375 9.300781 -7.882812 C 8.972656 -6.792969 8.574219 -5.777344 8.136719 -4.757812 C 7.664062 -3.742188 7.046875 -2.832031 6.320312 -2.035156 Z M 6.320312 -2.035156 "/></g></g></g><g fill="#ffffff" fill-opacity="1"><g transform="translate(148.124539, 266.725089)"><g><path d="M 3.558594 -5.050781 L 8.027344 -25.578125 C 8.027344 -25.683594 7.882812 -25.792969 7.519531 -25.902344 C 7.15625 -25.976562 6.722656 -26.046875 6.25 -26.046875 C 5.777344 -26.046875 5.339844 -25.941406 4.90625 -25.792969 C 4.46875 -25.648438 4.179688 -25.359375 4.105469 -24.996094 C 3.597656 -23.070312 3.125 -21.214844 2.726562 -19.398438 C 2.289062 -17.582031 1.925781 -15.914062 1.636719 -14.351562 C 1.308594 -12.789062 1.015625 -11.371094 0.800781 -10.136719 C 0.582031 -8.902344 0.398438 -7.882812 0.289062 -7.085938 C 0 -5.523438 -0.109375 -4.25 -0.0351562 -3.304688 C 0.0351562 -2.324219 0.183594 -1.5625 0.472656 -1.054688 C 0.726562 -0.546875 1.054688 -0.21875 1.488281 -0.0742188 C 1.925781 0.0742188 2.363281 0.0351562 2.871094 -0.109375 C 3.195312 -0.144531 3.523438 -0.507812 3.816406 -1.199219 C 4.105469 -1.851562 4.433594 -2.6875 4.757812 -3.707031 C 5.085938 -4.6875 5.449219 -5.738281 5.8125 -6.867188 C 6.175781 -7.992188 6.574219 -9.046875 7.011719 -10.027344 C 7.449219 -10.972656 7.957031 -11.808594 8.539062 -12.460938 C 9.117188 -13.113281 9.773438 -13.476562 10.5 -13.515625 C 10.71875 -13.515625 10.933594 -13.441406 11.082031 -13.296875 C 11.226562 -13.152344 11.335938 -12.96875 11.40625 -12.75 C 11.480469 -12.535156 11.515625 -12.28125 11.515625 -12.023438 C 11.515625 -11.769531 11.515625 -11.554688 11.515625 -11.335938 C 11.445312 -10.390625 11.296875 -9.519531 11.082031 -8.753906 C 10.863281 -7.957031 10.609375 -7.191406 10.390625 -6.464844 C 10.171875 -5.738281 9.953125 -4.976562 9.773438 -4.214844 C 9.589844 -3.414062 9.519531 -2.578125 9.519531 -1.636719 C 9.519531 -1.125 9.699219 -0.691406 10.0625 -0.289062 C 10.425781 0.144531 10.898438 0.328125 11.480469 0.289062 C 12.171875 0.289062 12.859375 0.0742188 13.515625 -0.328125 C 14.167969 -0.691406 14.824219 -1.199219 15.402344 -1.78125 C 15.984375 -2.363281 16.53125 -3.015625 17.039062 -3.742188 C 17.546875 -4.46875 17.984375 -5.160156 18.382812 -5.847656 C 18.746094 -6.503906 19.074219 -7.15625 19.328125 -7.738281 C 19.546875 -8.320312 19.726562 -8.753906 19.800781 -9.046875 L 18.746094 -9.15625 C 18.671875 -8.902344 18.527344 -8.539062 18.308594 -8.101562 C 18.09375 -7.628906 17.800781 -7.121094 17.511719 -6.574219 C 17.183594 -6.03125 16.820312 -5.484375 16.457031 -4.90625 C 16.058594 -4.324219 15.660156 -3.777344 15.296875 -3.34375 C 14.894531 -2.871094 14.53125 -2.507812 14.167969 -2.214844 C 13.804688 -1.925781 13.476562 -1.78125 13.222656 -1.816406 C 13.007812 -1.816406 12.898438 -1.925781 12.824219 -2.070312 C 12.75 -2.214844 12.75 -2.433594 12.75 -2.652344 C 12.75 -2.871094 12.75 -3.125 12.824219 -3.378906 C 12.898438 -3.632812 12.96875 -3.851562 13.042969 -4.070312 C 13.1875 -4.578125 13.371094 -5.230469 13.625 -6.03125 C 13.878906 -6.828125 14.097656 -7.664062 14.3125 -8.574219 C 14.496094 -9.445312 14.640625 -10.355469 14.714844 -11.261719 C 14.785156 -12.132812 14.75 -12.96875 14.566406 -13.695312 C 14.386719 -14.421875 14.058594 -15.003906 13.550781 -15.476562 C 13.042969 -15.914062 12.28125 -16.167969 11.335938 -16.167969 C 10.246094 -16.167969 9.265625 -15.730469 8.390625 -14.894531 C 7.519531 -14.058594 6.757812 -13.042969 6.101562 -11.878906 C 5.449219 -10.71875 4.941406 -9.480469 4.503906 -8.246094 C 4.070312 -6.976562 3.777344 -5.921875 3.558594 -5.050781 Z M 3.558594 -5.050781 "/></g></g></g><g fill="#ffffff" fill-opacity="1"><g transform="translate(169.522472, 266.725089)"><g><path d="M 1.671875 11.042969 C 1.707031 11.042969 1.78125 10.898438 1.851562 10.609375 C 1.925781 10.316406 2.035156 9.992188 2.105469 9.554688 C 2.179688 9.117188 2.289062 8.648438 2.398438 8.136719 C 2.46875 7.628906 2.578125 7.121094 2.652344 6.683594 C 2.726562 6.25 2.796875 5.847656 2.871094 5.484375 C 2.90625 5.160156 2.941406 4.941406 2.980469 4.867188 C 3.125 4.03125 3.304688 3.160156 3.488281 2.214844 C 3.667969 1.273438 3.851562 0.328125 4.070312 -0.652344 C 4.324219 -0.472656 4.648438 -0.328125 5.011719 -0.21875 C 5.375 -0.0742188 5.703125 0 5.996094 0 C 7.15625 0.0742188 8.285156 -0.109375 9.410156 -0.546875 C 10.5 -0.980469 11.515625 -1.636719 12.425781 -2.542969 C 13.332031 -3.453125 14.097656 -4.578125 14.75 -5.921875 C 15.402344 -7.265625 15.839844 -8.792969 16.058594 -10.535156 C 16.203125 -11.699219 16.128906 -12.644531 15.875 -13.40625 C 15.621094 -14.167969 15.257812 -14.785156 14.824219 -15.222656 C 14.386719 -15.660156 13.914062 -15.984375 13.40625 -16.167969 C 12.898438 -16.3125 12.460938 -16.421875 12.097656 -16.421875 C 11.480469 -16.421875 10.898438 -16.3125 10.390625 -16.09375 C 9.882812 -15.875 9.375 -15.621094 8.902344 -15.257812 C 8.429688 -14.894531 7.992188 -14.460938 7.59375 -13.988281 C 7.191406 -13.515625 6.828125 -13.007812 6.464844 -12.496094 L 7.484375 -16.421875 C 7.519531 -16.53125 7.375 -16.640625 7.011719 -16.75 C 6.648438 -16.855469 6.210938 -16.929688 5.738281 -16.929688 C 5.269531 -16.929688 4.796875 -16.894531 4.324219 -16.785156 C 3.851562 -16.640625 3.523438 -16.421875 3.378906 -16.128906 C 3.125 -15.1875 2.871094 -14.167969 2.617188 -13.007812 C 2.324219 -11.84375 2.070312 -10.644531 1.816406 -9.410156 C 1.527344 -8.175781 1.273438 -6.902344 1.015625 -5.632812 C 0.726562 -4.324219 0.472656 -3.089844 0.253906 -1.925781 C 0 -0.726562 -0.21875 0.398438 -0.398438 1.417969 C -0.582031 2.46875 -0.726562 3.378906 -0.800781 4.140625 C -0.945312 5.121094 -0.980469 6.03125 -0.910156 6.867188 C -0.871094 7.738281 -0.761719 8.464844 -0.546875 9.082031 C -0.328125 9.699219 -0.0351562 10.171875 0.328125 10.535156 C 0.691406 10.898438 1.164062 11.042969 1.671875 11.042969 Z M 6.101562 -9.300781 C 6.25 -9.773438 6.539062 -10.316406 6.9375 -10.972656 C 7.300781 -11.625 7.738281 -12.207031 8.246094 -12.789062 C 8.753906 -13.371094 9.265625 -13.839844 9.808594 -14.203125 C 10.355469 -14.566406 10.863281 -14.75 11.335938 -14.75 C 11.699219 -14.714844 11.953125 -14.53125 12.097656 -14.203125 C 12.242188 -13.878906 12.316406 -13.515625 12.351562 -13.078125 C 12.351562 -12.644531 12.351562 -12.171875 12.316406 -11.734375 C 12.242188 -11.296875 12.207031 -10.933594 12.171875 -10.679688 C 12.097656 -10.246094 11.953125 -9.738281 11.808594 -9.15625 C 11.625 -8.539062 11.40625 -7.882812 11.152344 -7.230469 C 10.863281 -6.539062 10.570312 -5.847656 10.207031 -5.195312 C 9.84375 -4.503906 9.480469 -3.886719 9.046875 -3.34375 C 8.609375 -2.796875 8.175781 -2.363281 7.664062 -2.035156 C 7.15625 -1.671875 6.648438 -1.527344 6.140625 -1.527344 C 5.847656 -1.527344 5.558594 -1.527344 5.195312 -1.597656 C 4.832031 -1.636719 4.578125 -1.742188 4.394531 -1.890625 C 4.6875 -3.269531 4.941406 -4.542969 5.195312 -5.777344 C 5.414062 -7.011719 5.738281 -8.175781 6.101562 -9.300781 Z M 6.101562 -9.300781 "/></g></g></g><g fill="#ffffff" fill-opacity="1"><g transform="translate(190.08486, 266.725089)"><g><path d="M 6.976562 0 C 8.285156 0.0351562 9.480469 -0.253906 10.570312 -0.871094 C 11.660156 -1.453125 12.644531 -2.179688 13.476562 -3.050781 C 14.3125 -3.921875 15.003906 -4.796875 15.585938 -5.703125 C 16.128906 -6.574219 16.492188 -7.339844 16.710938 -7.921875 L 15.804688 -8.101562 C 15.550781 -7.59375 15.148438 -6.9375 14.605469 -6.140625 C 14.023438 -5.339844 13.371094 -4.542969 12.605469 -3.816406 C 11.84375 -3.089844 11.007812 -2.46875 10.136719 -1.960938 C 9.265625 -1.453125 8.390625 -1.234375 7.519531 -1.34375 C 6.722656 -1.378906 6.101562 -1.597656 5.632812 -2 C 5.160156 -2.398438 4.796875 -2.871094 4.542969 -3.414062 C 4.285156 -3.960938 4.140625 -4.503906 4.105469 -5.085938 C 4.03125 -5.667969 4.070312 -6.140625 4.140625 -6.574219 C 4.25 -6.539062 4.359375 -6.503906 4.433594 -6.464844 C 4.503906 -6.429688 4.613281 -6.429688 4.757812 -6.429688 C 7.085938 -5.921875 9.011719 -6.066406 10.5 -6.828125 C 11.988281 -7.59375 13.042969 -8.863281 13.695312 -10.679688 C 13.988281 -11.554688 14.097656 -12.351562 13.988281 -13.007812 C 13.878906 -13.660156 13.660156 -14.203125 13.296875 -14.640625 C 12.933594 -15.078125 12.535156 -15.402344 12.0625 -15.660156 C 11.554688 -15.875 11.117188 -16.058594 10.71875 -16.203125 C 9.699219 -16.457031 8.574219 -16.53125 7.410156 -16.386719 C 6.25 -16.238281 5.121094 -15.804688 4.105469 -15.148438 C 3.089844 -14.460938 2.179688 -13.476562 1.417969 -12.171875 C 0.652344 -10.863281 0.183594 -9.226562 0 -7.191406 C -0.0742188 -6.320312 0 -5.449219 0.289062 -4.613281 C 0.546875 -3.742188 0.980469 -2.980469 1.597656 -2.324219 C 2.179688 -1.636719 2.941406 -1.089844 3.851562 -0.652344 C 4.757812 -0.21875 5.8125 0 6.976562 0 Z M 5.050781 -7.410156 L 4.359375 -7.554688 C 4.433594 -8.175781 4.613281 -8.9375 4.90625 -9.882812 C 5.195312 -10.828125 5.558594 -11.699219 6.03125 -12.535156 C 6.464844 -13.332031 7.011719 -14.023438 7.664062 -14.566406 C 8.285156 -15.078125 8.972656 -15.257812 9.773438 -15.113281 C 10.0625 -15.039062 10.316406 -14.894531 10.5 -14.675781 C 10.644531 -14.460938 10.753906 -14.203125 10.828125 -13.914062 C 10.898438 -13.625 10.898438 -13.296875 10.898438 -13.007812 C 10.898438 -12.714844 10.863281 -12.425781 10.863281 -12.207031 C 10.71875 -11.445312 10.464844 -10.753906 10.171875 -10.101562 C 9.882812 -9.445312 9.480469 -8.863281 9.011719 -8.429688 C 8.539062 -7.992188 7.957031 -7.664062 7.300781 -7.449219 C 6.648438 -7.230469 5.886719 -7.230469 5.050781 -7.410156 Z M 5.050781 -7.410156 "/></g></g></g><g fill="#ffffff" fill-opacity="1"><g transform="translate(209.339429, 266.725089)"><g><path d="M 16.929688 0.109375 C 17.800781 0.109375 18.601562 -0.253906 19.292969 -0.980469 C 19.980469 -1.707031 20.597656 -2.542969 21.109375 -3.523438 C 21.617188 -4.503906 22.015625 -5.484375 22.304688 -6.464844 C 22.597656 -7.449219 22.816406 -8.210938 22.960938 -8.71875 L 22.050781 -8.972656 C 21.941406 -8.539062 21.761719 -7.882812 21.472656 -7.046875 C 21.179688 -6.210938 20.816406 -5.375 20.453125 -4.578125 C 20.054688 -3.742188 19.65625 -3.015625 19.21875 -2.433594 C 18.78125 -1.851562 18.417969 -1.5625 18.128906 -1.5625 C 17.910156 -1.5625 17.765625 -1.636719 17.65625 -1.78125 C 17.546875 -1.925781 17.476562 -2.070312 17.4375 -2.289062 C 17.367188 -2.46875 17.367188 -2.6875 17.367188 -2.90625 C 17.367188 -3.125 17.367188 -3.304688 17.402344 -3.488281 C 17.546875 -4.285156 17.691406 -5.050781 17.839844 -5.738281 C 17.984375 -6.394531 18.164062 -7.085938 18.347656 -7.773438 C 18.492188 -8.429688 18.671875 -9.15625 18.820312 -9.917969 C 18.964844 -10.644531 19.109375 -11.515625 19.253906 -12.535156 C 19.328125 -13.222656 19.292969 -13.804688 19.074219 -14.3125 C 18.855469 -14.824219 18.601562 -15.222656 18.273438 -15.511719 C 17.910156 -15.804688 17.546875 -16.058594 17.113281 -16.203125 C 16.675781 -16.347656 16.3125 -16.421875 15.949219 -16.421875 C 15.367188 -16.421875 14.859375 -16.277344 14.421875 -16.058594 C 13.949219 -15.839844 13.515625 -15.550781 13.152344 -15.1875 C 12.75 -14.824219 12.425781 -14.460938 12.132812 -14.023438 C 11.84375 -13.585938 11.625 -13.152344 11.480469 -12.75 C 11.480469 -13.042969 11.445312 -13.371094 11.40625 -13.734375 C 11.371094 -14.097656 11.296875 -14.460938 11.152344 -14.824219 C 11.007812 -15.1875 10.789062 -15.476562 10.5 -15.765625 C 10.207031 -16.058594 9.84375 -16.238281 9.375 -16.386719 C 8.320312 -16.601562 7.339844 -16.347656 6.464844 -15.585938 C 5.59375 -14.824219 4.867188 -13.695312 4.359375 -12.171875 L 5.121094 -16.238281 C 5.121094 -16.347656 4.976562 -16.457031 4.6875 -16.566406 C 4.394531 -16.640625 4.03125 -16.710938 3.632812 -16.710938 C 3.234375 -16.710938 2.832031 -16.640625 2.46875 -16.492188 C 2.070312 -16.347656 1.816406 -16.128906 1.671875 -15.839844 C 1.089844 -13.296875 0.691406 -10.863281 0.398438 -8.574219 C 0.109375 -6.25 0 -4.285156 0 -2.617188 C 0 -1.816406 0.21875 -1.164062 0.652344 -0.691406 C 1.089844 -0.21875 1.5625 0 2.070312 0 C 2.289062 0 2.46875 -0.0742188 2.617188 -0.289062 C 2.761719 -0.507812 2.871094 -0.726562 2.980469 -0.980469 C 3.050781 -1.234375 3.125 -1.488281 3.195312 -1.742188 C 3.269531 -1.960938 3.304688 -2.144531 3.304688 -2.214844 C 3.34375 -2.871094 3.414062 -3.667969 3.558594 -4.542969 C 3.707031 -5.414062 3.851562 -6.285156 4.070312 -7.191406 C 4.25 -8.101562 4.46875 -8.972656 4.722656 -9.84375 C 4.941406 -10.679688 5.230469 -11.40625 5.523438 -12.0625 C 5.667969 -12.351562 5.8125 -12.679688 5.996094 -13.007812 C 6.175781 -13.296875 6.359375 -13.585938 6.574219 -13.839844 C 6.792969 -14.058594 6.976562 -14.277344 7.191406 -14.421875 C 7.410156 -14.566406 7.59375 -14.640625 7.8125 -14.640625 C 8.101562 -14.566406 8.320312 -14.242188 8.429688 -13.625 C 8.5 -13.007812 8.539062 -12.242188 8.5 -11.335938 C 8.429688 -10.390625 8.355469 -9.375 8.210938 -8.285156 C 8.066406 -7.15625 7.957031 -6.101562 7.8125 -5.121094 C 7.664062 -4.105469 7.519531 -3.234375 7.375 -2.46875 C 7.230469 -1.671875 7.191406 -1.164062 7.191406 -0.945312 C 7.15625 -0.582031 7.265625 -0.363281 7.554688 -0.289062 C 7.847656 -0.21875 8.136719 -0.21875 8.5 -0.289062 C 8.828125 -0.363281 9.15625 -0.507812 9.445312 -0.691406 C 9.738281 -0.871094 9.882812 -1.054688 9.953125 -1.234375 C 10.101562 -1.890625 10.246094 -2.652344 10.425781 -3.558594 C 10.570312 -4.433594 10.753906 -5.375 10.972656 -6.359375 C 11.191406 -7.339844 11.40625 -8.320312 11.699219 -9.300781 C 11.953125 -10.246094 12.242188 -11.117188 12.570312 -11.878906 C 12.898438 -12.644531 13.261719 -13.261719 13.660156 -13.769531 C 14.058594 -14.277344 14.496094 -14.53125 15.003906 -14.566406 C 15.222656 -14.566406 15.367188 -14.496094 15.476562 -14.351562 C 15.585938 -14.203125 15.660156 -14.023438 15.695312 -13.804688 C 15.730469 -13.585938 15.765625 -13.332031 15.765625 -13.113281 C 15.765625 -12.859375 15.730469 -12.644531 15.730469 -12.496094 C 15.621094 -11.554688 15.511719 -10.828125 15.441406 -10.246094 C 15.367188 -9.664062 15.257812 -9.117188 15.148438 -8.539062 C 15.039062 -7.957031 14.929688 -7.300781 14.785156 -6.574219 C 14.640625 -5.8125 14.421875 -4.796875 14.203125 -3.558594 C 14.058594 -2.832031 14.097656 -2.253906 14.242188 -1.816406 C 14.386719 -1.34375 14.605469 -0.980469 14.894531 -0.691406 C 15.1875 -0.398438 15.511719 -0.183594 15.875 -0.0742188 C 16.238281 0.0742188 16.601562 0.109375 16.929688 0.109375 Z M 16.929688 0.109375 "/></g></g></g><g fill="#ffffff" fill-opacity="1"><g transform="translate(235.205729, 266.725089)"><g><path d="M 6.464844 -0.0351562 C 7.484375 -0.0742188 8.464844 -0.398438 9.445312 -0.980469 C 10.425781 -1.5625 11.335938 -2.253906 12.132812 -3.050781 C 12.933594 -3.851562 13.660156 -4.613281 14.277344 -5.414062 C 14.859375 -6.210938 15.332031 -6.828125 15.621094 -7.265625 L 14.785156 -7.59375 C 14.53125 -7.191406 14.097656 -6.683594 13.476562 -6.03125 C 12.859375 -5.375 12.171875 -4.722656 11.40625 -4.070312 C 10.644531 -3.414062 9.84375 -2.90625 9.046875 -2.46875 C 8.210938 -2.035156 7.484375 -1.816406 6.867188 -1.890625 C 6.140625 -1.925781 5.59375 -2.070312 5.230469 -2.363281 C 4.832031 -2.652344 4.542969 -2.980469 4.359375 -3.34375 C 4.140625 -3.707031 4.03125 -4.070312 3.996094 -4.503906 C 3.960938 -4.941406 3.960938 -5.304688 3.960938 -5.667969 C 3.960938 -6.464844 4.105469 -7.339844 4.359375 -8.355469 C 4.578125 -9.375 4.941406 -10.316406 5.375 -11.226562 C 5.8125 -12.097656 6.320312 -12.859375 6.902344 -13.476562 C 7.484375 -14.058594 8.101562 -14.386719 8.828125 -14.386719 C 9.265625 -14.386719 9.589844 -14.203125 9.773438 -13.914062 C 9.917969 -13.585938 10.027344 -13.261719 10.027344 -12.898438 C 10.027344 -12.171875 9.84375 -11.445312 9.480469 -10.644531 C 9.117188 -9.84375 8.753906 -9.191406 8.355469 -8.609375 L 9.738281 -8.136719 C 10.101562 -8.355469 10.5 -8.574219 10.898438 -8.828125 C 11.296875 -9.046875 11.660156 -9.335938 11.988281 -9.699219 C 12.316406 -10.027344 12.605469 -10.425781 12.824219 -10.863281 C 13.042969 -11.296875 13.1875 -11.84375 13.261719 -12.425781 C 13.296875 -12.96875 13.1875 -13.476562 12.933594 -13.988281 C 12.679688 -14.460938 12.316406 -14.894531 11.878906 -15.257812 C 11.445312 -15.621094 10.933594 -15.875 10.355469 -16.09375 C 9.773438 -16.3125 9.226562 -16.421875 8.648438 -16.421875 C 7.847656 -16.421875 7.011719 -16.3125 6.066406 -16.09375 C 5.121094 -15.875 4.214844 -15.476562 3.378906 -14.824219 C 2.507812 -14.167969 1.78125 -13.1875 1.164062 -11.953125 C 0.507812 -10.679688 0.144531 -9.011719 0 -6.902344 C -0.109375 -5.667969 0.0351562 -4.578125 0.4375 -3.707031 C 0.800781 -2.832031 1.308594 -2.105469 1.960938 -1.5625 C 2.617188 -0.980469 3.34375 -0.582031 4.140625 -0.328125 C 4.941406 -0.0742188 5.703125 0.0351562 6.464844 -0.0351562 Z M 6.464844 -0.0351562 "/></g></g></g><g fill="#ffffff" fill-opacity="1"><g transform="translate(253.624742, 266.725089)"><g><path d="M 5.085938 0 C 5.8125 -0.0351562 6.613281 -0.328125 7.449219 -0.910156 C 8.285156 -1.453125 9.082031 -2.144531 9.882812 -2.980469 C 10.644531 -3.777344 11.371094 -4.6875 12.023438 -5.667969 C 12.679688 -6.613281 13.1875 -7.554688 13.550781 -8.464844 L 12.75 -9.15625 C 12.425781 -8.464844 11.953125 -7.703125 11.296875 -6.828125 C 10.644531 -5.957031 9.953125 -5.121094 9.226562 -4.359375 C 8.5 -3.597656 7.773438 -2.980469 7.046875 -2.46875 C 6.320312 -1.960938 5.738281 -1.742188 5.304688 -1.816406 C 4.941406 -1.851562 4.613281 -2.035156 4.25 -2.398438 C 3.886719 -2.761719 3.707031 -3.160156 3.707031 -3.667969 C 3.667969 -4.105469 3.707031 -4.613281 3.777344 -5.121094 C 3.851562 -5.632812 3.996094 -6.320312 4.179688 -7.265625 C 5.269531 -7.738281 6.320312 -8.5 7.300781 -9.519531 C 8.246094 -10.535156 9.117188 -11.660156 9.882812 -12.898438 C 10.644531 -14.097656 11.296875 -15.296875 11.808594 -16.492188 C 12.316406 -17.65625 12.644531 -18.671875 12.859375 -19.472656 C 13.078125 -20.488281 13.222656 -21.363281 13.222656 -22.089844 C 13.222656 -22.816406 13.113281 -23.433594 12.898438 -23.90625 C 12.679688 -24.378906 12.386719 -24.742188 12.023438 -24.996094 C 11.625 -25.25 11.191406 -25.429688 10.679688 -25.503906 C 9.664062 -25.648438 8.753906 -25.46875 7.882812 -24.957031 C 7.011719 -24.449219 6.175781 -23.6875 5.449219 -22.742188 C 4.6875 -21.761719 3.996094 -20.597656 3.414062 -19.292969 C 2.796875 -17.984375 2.253906 -16.566406 1.816406 -15.113281 C 1.34375 -13.625 0.945312 -12.097656 0.652344 -10.570312 C 0.363281 -9.011719 0.144531 -7.519531 0.0351562 -6.101562 C -0.109375 -4.867188 0 -3.886719 0.289062 -3.089844 C 0.582031 -2.289062 1.015625 -1.636719 1.527344 -1.164062 C 2.035156 -0.691406 2.578125 -0.363281 3.234375 -0.183594 C 3.886719 0 4.503906 0.0742188 5.085938 0 Z M 10.5 -23.941406 C 10.71875 -23.941406 10.828125 -23.652344 10.828125 -23.070312 C 10.789062 -22.488281 10.644531 -21.6875 10.425781 -20.746094 C 10.207031 -19.800781 9.882812 -18.710938 9.480469 -17.546875 C 9.082031 -16.386719 8.609375 -15.222656 8.101562 -14.097656 C 7.554688 -12.933594 6.976562 -11.878906 6.359375 -10.933594 C 5.738281 -9.992188 5.121094 -9.265625 4.46875 -8.753906 C 4.613281 -9.589844 4.867188 -10.535156 5.160156 -11.625 C 5.449219 -12.714844 5.738281 -13.804688 6.101562 -14.894531 C 6.429688 -15.984375 6.792969 -17.074219 7.191406 -18.164062 C 7.554688 -19.21875 7.957031 -20.164062 8.320312 -21 C 8.683594 -21.835938 9.082031 -22.523438 9.445312 -23.070312 C 9.808594 -23.578125 10.171875 -23.867188 10.5 -23.941406 Z M 10.5 -23.941406 "/></g></g></g><g fill="#ffffff" fill-opacity="1"><g transform="translate(269.682427, 266.725089)"><g><path d="M 6.503906 -0.835938 C 7.230469 -1.488281 7.738281 -2.070312 7.992188 -2.507812 C 8.246094 -2.941406 8.390625 -3.195312 8.390625 -3.234375 C 8.355469 -2.796875 8.464844 -2.363281 8.683594 -1.960938 C 8.902344 -1.5625 9.15625 -1.199219 9.519531 -0.910156 C 9.84375 -0.617188 10.207031 -0.363281 10.644531 -0.21875 C 11.082031 -0.0351562 11.480469 0.0351562 11.917969 0 C 12.679688 0 13.40625 -0.328125 14.097656 -0.980469 C 14.785156 -1.636719 15.402344 -2.363281 15.949219 -3.234375 C 16.457031 -4.070312 16.929688 -4.90625 17.292969 -5.738281 C 17.65625 -6.539062 17.875 -7.15625 18.019531 -7.554688 L 16.964844 -7.957031 C 16.820312 -7.59375 16.53125 -7.085938 16.167969 -6.359375 C 15.804688 -5.632812 15.402344 -4.941406 14.96875 -4.214844 C 14.53125 -3.488281 14.058594 -2.871094 13.625 -2.363281 C 13.1875 -1.816406 12.824219 -1.5625 12.535156 -1.5625 C 12.316406 -1.5625 12.132812 -1.636719 12.023438 -1.816406 C 11.917969 -2 11.84375 -2.214844 11.808594 -2.433594 C 11.769531 -2.652344 11.769531 -2.90625 11.769531 -3.160156 C 11.769531 -3.414062 11.808594 -3.632812 11.84375 -3.777344 C 11.953125 -4.648438 12.132812 -5.632812 12.386719 -6.722656 C 12.644531 -7.8125 12.898438 -8.828125 13.1875 -9.84375 C 13.476562 -10.863281 13.734375 -11.769531 13.988281 -12.570312 C 14.203125 -13.371094 14.386719 -13.988281 14.53125 -14.421875 C 14.53125 -14.496094 14.460938 -14.566406 14.277344 -14.640625 C 14.097656 -14.714844 13.878906 -14.785156 13.625 -14.859375 C 13.332031 -14.894531 13.042969 -14.894531 12.714844 -14.894531 C 12.386719 -14.859375 12.097656 -14.75 11.808594 -14.605469 C 11.808594 -14.605469 11.769531 -14.675781 11.699219 -14.859375 C 11.589844 -15.003906 11.445312 -15.1875 11.226562 -15.402344 C 11.007812 -15.621094 10.71875 -15.804688 10.390625 -16.023438 C 10.027344 -16.203125 9.664062 -16.3125 9.226562 -16.386719 C 8.320312 -16.457031 7.375 -16.347656 6.359375 -16.058594 C 5.339844 -15.730469 4.359375 -15.148438 3.488281 -14.3125 C 2.578125 -13.476562 1.816406 -12.351562 1.164062 -10.898438 C 0.507812 -9.445312 0.144531 -7.664062 0.0351562 -5.523438 C -0.0742188 -3.996094 0.109375 -2.796875 0.617188 -1.960938 C 1.125 -1.125 1.707031 -0.546875 2.433594 -0.253906 C 3.160156 0.0351562 3.886719 0.144531 4.648438 0 C 5.414062 -0.144531 6.03125 -0.398438 6.503906 -0.835938 Z M 6.320312 -2.035156 C 5.886719 -1.742188 5.523438 -1.636719 5.230469 -1.78125 C 4.90625 -1.925781 4.648438 -2.179688 4.433594 -2.542969 C 4.214844 -2.90625 4.070312 -3.34375 3.996094 -3.886719 C 3.921875 -4.394531 3.886719 -4.941406 3.960938 -5.449219 C 4.03125 -6.320312 4.214844 -7.265625 4.46875 -8.355469 C 4.722656 -9.410156 5.085938 -10.425781 5.523438 -11.371094 C 5.957031 -12.316406 6.464844 -13.152344 7.085938 -13.839844 C 7.703125 -14.496094 8.429688 -14.859375 9.226562 -14.929688 C 9.519531 -14.929688 9.738281 -14.894531 9.953125 -14.824219 C 10.171875 -14.75 10.316406 -14.640625 10.464844 -14.53125 C 10.609375 -14.386719 10.71875 -14.277344 10.789062 -14.132812 C 10.863281 -13.988281 10.898438 -13.878906 10.972656 -13.804688 C 10.644531 -12.96875 10.355469 -12.023438 10.136719 -11.007812 C 9.882812 -9.992188 9.589844 -8.9375 9.300781 -7.882812 C 8.972656 -6.792969 8.574219 -5.777344 8.136719 -4.757812 C 7.664062 -3.742188 7.046875 -2.832031 6.320312 -2.035156 Z M 6.320312 -2.035156 "/></g></g></g><g fill="#ffffff" fill-opacity="1"><g transform="translate(290.353797, 266.725089)"><g><path d="M 5.59375 -14.386719 L 6.101562 -16.238281 C 6.101562 -16.347656 5.921875 -16.457031 5.558594 -16.566406 C 5.195312 -16.675781 4.757812 -16.75 4.25 -16.75 C 3.742188 -16.75 3.269531 -16.675781 2.832031 -16.53125 C 2.363281 -16.386719 2.070312 -16.167969 1.925781 -15.839844 L 1.925781 -15.804688 L 1.890625 -15.804688 C 1.234375 -14.058594 0.761719 -12.351562 0.4375 -10.679688 C 0.109375 -8.972656 -0.0351562 -7.046875 0 -4.90625 C 0 -4.324219 0.0742188 -3.742188 0.289062 -3.160156 C 0.507812 -2.578125 0.800781 -2.035156 1.164062 -1.5625 C 1.527344 -1.089844 2 -0.691406 2.578125 -0.398438 C 3.125 -0.109375 3.742188 0.0351562 4.46875 0 C 4.941406 0 5.375 -0.109375 5.8125 -0.328125 C 6.210938 -0.546875 6.574219 -0.800781 6.902344 -1.125 C 7.230469 -1.417969 7.519531 -1.742188 7.738281 -2.105469 C 7.957031 -2.46875 8.175781 -2.761719 8.320312 -3.050781 C 8.320312 -2.832031 8.320312 -2.542969 8.355469 -2.214844 C 8.355469 -1.851562 8.429688 -1.527344 8.574219 -1.199219 C 8.71875 -0.871094 8.9375 -0.582031 9.226562 -0.363281 C 9.519531 -0.144531 9.992188 0 10.570312 0 C 11.261719 0.0351562 11.988281 -0.253906 12.714844 -0.871094 C 13.441406 -1.453125 14.132812 -2.179688 14.785156 -3.015625 C 15.402344 -3.851562 15.949219 -4.6875 16.386719 -5.558594 C 16.820312 -6.394531 17.148438 -7.046875 17.292969 -7.554688 L 16.421875 -7.8125 C 16.203125 -7.375 15.949219 -6.867188 15.660156 -6.285156 C 15.332031 -5.667969 14.96875 -5.085938 14.605469 -4.503906 C 14.242188 -3.921875 13.839844 -3.453125 13.441406 -3.050781 C 13.007812 -2.617188 12.644531 -2.398438 12.28125 -2.398438 C 11.953125 -2.398438 11.769531 -2.652344 11.734375 -3.089844 C 11.660156 -3.523438 11.699219 -3.996094 11.769531 -4.542969 C 11.84375 -5.050781 11.917969 -5.59375 12.0625 -6.101562 C 12.207031 -6.613281 12.28125 -7.011719 12.351562 -7.230469 L 14.566406 -15.039062 L 14.859375 -16.058594 C 14.859375 -16.167969 14.714844 -16.277344 14.351562 -16.421875 C 13.988281 -16.53125 13.585938 -16.601562 13.152344 -16.601562 C 12.679688 -16.601562 12.242188 -16.566406 11.808594 -16.457031 C 11.371094 -16.3125 11.082031 -16.09375 10.933594 -15.765625 C 10.644531 -14.75 10.425781 -13.839844 10.207031 -13.042969 C 9.992188 -12.242188 9.808594 -11.480469 9.628906 -10.828125 C 9.445312 -10.136719 9.265625 -9.480469 9.117188 -8.902344 C 8.9375 -8.320312 8.753906 -7.738281 8.574219 -7.15625 C 8.210938 -6.066406 7.847656 -5.160156 7.554688 -4.46875 C 7.265625 -3.742188 6.976562 -3.195312 6.683594 -2.761719 C 6.394531 -2.324219 6.101562 -2.035156 5.8125 -1.890625 C 5.523438 -1.742188 5.269531 -1.671875 4.976562 -1.671875 C 4.359375 -1.671875 3.996094 -1.925781 3.851562 -2.507812 C 3.707031 -3.089844 3.667969 -3.921875 3.816406 -5.011719 C 3.996094 -6.613281 4.214844 -8.175781 4.503906 -9.738281 C 4.796875 -11.261719 5.160156 -12.824219 5.59375 -14.386719 Z M 5.59375 -14.386719 "/></g></g></g><g fill="#ffffff" fill-opacity="1"><g transform="translate(310.443899, 266.725089)"><g><path d="M 5.449219 -0.0351562 C 6.101562 -0.0351562 6.792969 -0.0742188 7.554688 -0.21875 C 8.285156 -0.363281 9.011719 -0.582031 9.664062 -0.910156 C 10.316406 -1.234375 10.898438 -1.671875 11.371094 -2.253906 C 11.808594 -2.832031 12.097656 -3.558594 12.171875 -4.46875 C 12.171875 -5.011719 12.097656 -5.523438 11.953125 -6.03125 C 11.769531 -6.539062 11.515625 -7.011719 11.191406 -7.519531 C 10.863281 -8.027344 10.5 -8.539062 10.0625 -9.046875 C 9.628906 -9.554688 9.15625 -10.101562 8.648438 -10.679688 C 9.011719 -11.042969 9.480469 -11.40625 9.992188 -11.84375 C 10.5 -12.242188 11.007812 -12.679688 11.515625 -13.152344 C 12.023438 -13.585938 12.460938 -14.058594 12.824219 -14.566406 C 13.1875 -15.078125 13.441406 -15.585938 13.585938 -16.167969 C 13.769531 -17.183594 13.734375 -17.984375 13.515625 -18.566406 C 13.261719 -19.144531 12.898438 -19.617188 12.460938 -19.910156 C 11.988281 -20.199219 11.480469 -20.417969 10.972656 -20.488281 C 10.425781 -20.5625 9.992188 -20.636719 9.628906 -20.636719 C 9.046875 -20.636719 8.390625 -20.5625 7.703125 -20.34375 C 6.976562 -20.125 6.320312 -19.800781 5.738281 -19.328125 C 5.121094 -18.820312 4.613281 -18.203125 4.214844 -17.402344 C 3.777344 -16.601562 3.597656 -15.660156 3.632812 -14.53125 C 3.632812 -14.132812 3.742188 -13.734375 3.960938 -13.296875 C 4.179688 -12.859375 4.433594 -12.425781 4.722656 -11.988281 C 5.011719 -11.554688 5.304688 -11.191406 5.59375 -10.828125 C 5.886719 -10.464844 6.101562 -10.136719 6.285156 -9.882812 C 6.285156 -9.953125 5.777344 -9.375 4.796875 -8.101562 L 5.269531 -7.554688 L 6.902344 -9.046875 C 7.410156 -8.246094 7.882812 -7.484375 8.285156 -6.722656 C 8.683594 -5.957031 8.863281 -5.160156 8.863281 -4.285156 C 8.863281 -3.851562 8.753906 -3.488281 8.539062 -3.125 C 8.320312 -2.761719 8.027344 -2.433594 7.703125 -2.179688 C 7.375 -1.890625 7.011719 -1.671875 6.648438 -1.527344 C 6.285156 -1.378906 5.921875 -1.308594 5.558594 -1.378906 C 4.832031 -1.453125 4.324219 -1.742188 3.960938 -2.253906 C 3.597656 -2.761719 3.378906 -3.378906 3.304688 -4.105469 C 3.234375 -4.796875 3.269531 -5.484375 3.414062 -6.210938 C 3.558594 -6.9375 3.777344 -7.519531 4.070312 -7.992188 C 4.140625 -8.136719 4.070312 -8.390625 3.851562 -8.71875 C 3.632812 -9.046875 3.34375 -9.335938 3.015625 -9.628906 C 2.6875 -9.917969 2.363281 -10.101562 2.035156 -10.246094 C 1.671875 -10.390625 1.417969 -10.355469 1.273438 -10.136719 C 1.054688 -9.84375 0.910156 -9.628906 0.800781 -9.410156 C 0.691406 -9.191406 0.582031 -9.011719 0.472656 -8.792969 C 0.0351562 -7.847656 -0.183594 -6.828125 -0.21875 -5.8125 C -0.289062 -4.796875 -0.109375 -3.851562 0.253906 -2.980469 C 0.617188 -2.105469 1.199219 -1.378906 2.070312 -0.835938 C 2.90625 -0.253906 4.03125 0 5.449219 -0.0351562 Z M 9.554688 -19.074219 C 9.917969 -19.074219 10.171875 -18.855469 10.390625 -18.492188 C 10.570312 -18.128906 10.679688 -17.765625 10.679688 -17.4375 C 10.679688 -16.929688 10.570312 -16.457031 10.355469 -15.949219 C 10.136719 -15.441406 9.917969 -14.929688 9.628906 -14.460938 C 9.335938 -13.949219 9.011719 -13.476562 8.683594 -13.042969 C 8.320312 -12.570312 8.027344 -12.171875 7.773438 -11.808594 C 7.773438 -11.808594 7.738281 -11.878906 7.628906 -12.023438 C 7.519531 -12.171875 7.410156 -12.386719 7.265625 -12.679688 C 7.121094 -12.933594 6.976562 -13.222656 6.828125 -13.585938 C 6.683594 -13.914062 6.574219 -14.277344 6.574219 -14.640625 C 6.503906 -15.003906 6.574219 -15.476562 6.757812 -15.984375 C 6.9375 -16.492188 7.191406 -16.964844 7.484375 -17.4375 C 7.773438 -17.875 8.101562 -18.273438 8.464844 -18.601562 C 8.828125 -18.890625 9.191406 -19.074219 9.554688 -19.074219 Z M 9.554688 -19.074219 "/></g></g></g><g fill="#ffffff" fill-opacity="1"><g transform="translate(327.51878, 266.725089)"><g><path d="M 6.976562 0 C 8.285156 0.0351562 9.480469 -0.253906 10.570312 -0.871094 C 11.660156 -1.453125 12.644531 -2.179688 13.476562 -3.050781 C 14.3125 -3.921875 15.003906 -4.796875 15.585938 -5.703125 C 16.128906 -6.574219 16.492188 -7.339844 16.710938 -7.921875 L 15.804688 -8.101562 C 15.550781 -7.59375 15.148438 -6.9375 14.605469 -6.140625 C 14.023438 -5.339844 13.371094 -4.542969 12.605469 -3.816406 C 11.84375 -3.089844 11.007812 -2.46875 10.136719 -1.960938 C 9.265625 -1.453125 8.390625 -1.234375 7.519531 -1.34375 C 6.722656 -1.378906 6.101562 -1.597656 5.632812 -2 C 5.160156 -2.398438 4.796875 -2.871094 4.542969 -3.414062 C 4.285156 -3.960938 4.140625 -4.503906 4.105469 -5.085938 C 4.03125 -5.667969 4.070312 -6.140625 4.140625 -6.574219 C 4.25 -6.539062 4.359375 -6.503906 4.433594 -6.464844 C 4.503906 -6.429688 4.613281 -6.429688 4.757812 -6.429688 C 7.085938 -5.921875 9.011719 -6.066406 10.5 -6.828125 C 11.988281 -7.59375 13.042969 -8.863281 13.695312 -10.679688 C 13.988281 -11.554688 14.097656 -12.351562 13.988281 -13.007812 C 13.878906 -13.660156 13.660156 -14.203125 13.296875 -14.640625 C 12.933594 -15.078125 12.535156 -15.402344 12.0625 -15.660156 C 11.554688 -15.875 11.117188 -16.058594 10.71875 -16.203125 C 9.699219 -16.457031 8.574219 -16.53125 7.410156 -16.386719 C 6.25 -16.238281 5.121094 -15.804688 4.105469 -15.148438 C 3.089844 -14.460938 2.179688 -13.476562 1.417969 -12.171875 C 0.652344 -10.863281 0.183594 -9.226562 0 -7.191406 C -0.0742188 -6.320312 0 -5.449219 0.289062 -4.613281 C 0.546875 -3.742188 0.980469 -2.980469 1.597656 -2.324219 C 2.179688 -1.636719 2.941406 -1.089844 3.851562 -0.652344 C 4.757812 -0.21875 5.8125 0 6.976562 0 Z M 5.050781 -7.410156 L 4.359375 -7.554688 C 4.433594 -8.175781 4.613281 -8.9375 4.90625 -9.882812 C 5.195312 -10.828125 5.558594 -11.699219 6.03125 -12.535156 C 6.464844 -13.332031 7.011719 -14.023438 7.664062 -14.566406 C 8.285156 -15.078125 8.972656 -15.257812 9.773438 -15.113281 C 10.0625 -15.039062 10.316406 -14.894531 10.5 -14.675781 C 10.644531 -14.460938 10.753906 -14.203125 10.828125 -13.914062 C 10.898438 -13.625 10.898438 -13.296875 10.898438 -13.007812 C 10.898438 -12.714844 10.863281 -12.425781 10.863281 -12.207031 C 10.71875 -11.445312 10.464844 -10.753906 10.171875 -10.101562 C 9.882812 -9.445312 9.480469 -8.863281 9.011719 -8.429688 C 8.539062 -7.992188 7.957031 -7.664062 7.300781 -7.449219 C 6.648438 -7.230469 5.886719 -7.230469 5.050781 -7.410156 Z M 5.050781 -7.410156 "/></g></g></g><g fill="#ffffff" fill-opacity="1"><g transform="translate(346.773349, 266.725089)"><g><path d="M 4.90625 -12.933594 L 5.59375 -16.128906 C 5.59375 -16.238281 5.449219 -16.347656 5.121094 -16.492188 C 4.796875 -16.601562 4.433594 -16.675781 3.996094 -16.675781 C 3.558594 -16.675781 3.125 -16.640625 2.6875 -16.53125 C 2.253906 -16.421875 2 -16.203125 1.851562 -15.914062 C 1.308594 -13.839844 0.871094 -11.769531 0.582031 -9.738281 C 0.289062 -7.703125 0.0742188 -5.777344 0 -3.960938 C -0.0351562 -3.523438 0 -3.050781 0.144531 -2.578125 C 0.289062 -2.105469 0.472656 -1.671875 0.726562 -1.308594 C 0.980469 -0.910156 1.273438 -0.582031 1.597656 -0.363281 C 1.925781 -0.109375 2.289062 0 2.652344 0 C 2.6875 0 2.761719 -0.363281 2.90625 -1.089844 C 3.015625 -1.816406 3.195312 -2.761719 3.414062 -3.886719 C 3.632812 -4.976562 3.886719 -6.175781 4.214844 -7.484375 C 4.503906 -8.753906 4.867188 -9.953125 5.304688 -11.082031 C 5.738281 -12.171875 6.210938 -13.113281 6.757812 -13.839844 C 7.300781 -14.566406 7.921875 -14.96875 8.609375 -14.96875 C 8.902344 -14.96875 9.15625 -14.859375 9.375 -14.714844 C 9.589844 -14.53125 9.738281 -14.3125 9.882812 -14.058594 C 9.992188 -13.769531 10.0625 -13.476562 10.136719 -13.152344 C 10.171875 -12.824219 10.171875 -12.496094 10.136719 -12.207031 C 9.992188 -11.261719 9.808594 -10.425781 9.664062 -9.699219 C 9.519531 -8.972656 9.335938 -8.285156 9.191406 -7.628906 C 9.011719 -6.976562 8.828125 -6.285156 8.683594 -5.59375 C 8.539062 -4.867188 8.390625 -4.070312 8.285156 -3.195312 C 8.175781 -2.46875 8.246094 -1.890625 8.464844 -1.453125 C 8.683594 -1.015625 9.011719 -0.652344 9.375 -0.398438 C 9.738281 -0.144531 10.101562 0.0351562 10.464844 0.109375 C 10.828125 0.21875 11.117188 0.253906 11.296875 0.253906 C 12.023438 0.289062 12.679688 0.0351562 13.332031 -0.546875 C 13.988281 -1.125 14.53125 -1.78125 15.039062 -2.578125 C 15.550781 -3.378906 15.949219 -4.179688 16.3125 -4.976562 C 16.675781 -5.777344 16.929688 -6.429688 17.148438 -6.902344 L 16.421875 -7.375 C 16.277344 -6.9375 16.023438 -6.394531 15.695312 -5.667969 C 15.367188 -4.941406 15.003906 -4.25 14.605469 -3.597656 C 14.167969 -2.941406 13.769531 -2.363281 13.332031 -1.890625 C 12.898438 -1.378906 12.535156 -1.164062 12.242188 -1.199219 C 11.953125 -1.199219 11.734375 -1.308594 11.589844 -1.453125 C 11.445312 -1.597656 11.371094 -1.816406 11.371094 -2.035156 C 11.335938 -2.253906 11.335938 -2.46875 11.40625 -2.726562 C 11.445312 -2.980469 11.480469 -3.234375 11.554688 -3.488281 C 11.699219 -4.285156 11.878906 -5.050781 12.0625 -5.703125 C 12.207031 -6.359375 12.386719 -6.976562 12.535156 -7.628906 C 12.679688 -8.285156 12.859375 -8.9375 13.007812 -9.664062 C 13.152344 -10.355469 13.296875 -11.152344 13.441406 -12.097656 C 13.515625 -12.75 13.515625 -13.332031 13.371094 -13.839844 C 13.222656 -14.351562 13.042969 -14.785156 12.75 -15.148438 C 12.460938 -15.511719 12.132812 -15.765625 11.769531 -15.984375 C 11.371094 -16.203125 10.972656 -16.3125 10.535156 -16.386719 C 9.519531 -16.457031 8.5 -16.238281 7.484375 -15.730469 C 6.464844 -15.222656 5.632812 -14.277344 4.90625 -12.933594 Z M 4.90625 -12.933594 "/></g></g></g></svg>